<svg width="157" height="53" fill="none" xmlns="http://www.w3.org/2000/svg"><rect x="1.483" y=".997" width="154.7" height="50.7" rx="5.35" fill="#0C0D10"/><path d="M106.817 25.308v2.978h-1.867v1.953h1.867v6.637c0 2.266 1.025 3.172 3.604 3.172.453 0 .885-.054 1.262-.118v-1.932c-.323.032-.528.054-.884.054-1.155 0-1.662-.54-1.662-1.77V30.24h2.546v-1.953h-2.546v-2.978h-2.32zM118.253 40.21c3.432 0 5.536-2.298 5.536-6.108 0-3.787-2.115-6.096-5.536-6.096-3.431 0-5.546 2.309-5.546 6.096 0 3.81 2.104 6.108 5.546 6.108zm0-2.061c-2.017 0-3.151-1.478-3.151-4.047 0-2.546 1.134-4.035 3.151-4.035 2.008 0 3.151 1.489 3.151 4.035 0 2.558-1.143 4.047-3.151 4.047zM125.59 39.983h2.32v-6.938c0-1.651 1.241-2.763 3-2.763.41 0 1.1.076 1.294.14v-2.287c-.248-.065-.69-.097-1.035-.097-1.533 0-2.838.842-3.173 1.996h-.173v-1.802h-2.233v11.752zM137.965 29.98c1.716 0 2.838 1.198 2.892 3.043h-5.935c.13-1.834 1.327-3.043 3.043-3.043zm2.881 6.83c-.431.918-1.392 1.425-2.795 1.425-1.856 0-3.053-1.305-3.129-3.366v-.13h8.298v-.81c0-3.69-1.974-5.924-5.244-5.924-3.313 0-5.417 2.385-5.417 6.14 0 3.756 2.061 6.065 5.428 6.065 2.687 0 4.564-1.295 5.093-3.4h-2.234zM91.602 35.644c.179 2.886 2.584 4.731 6.163 4.731 3.825 0 6.218-1.935 6.218-5.022 0-2.427-1.364-3.77-4.675-4.54l-1.778-.437c-2.103-.492-2.953-1.152-2.953-2.304 0-1.454 1.32-2.405 3.3-2.405 1.879 0 3.176.929 3.411 2.416h2.438c-.145-2.718-2.539-4.63-5.816-4.63-3.523 0-5.872 1.912-5.872 4.787 0 2.37 1.331 3.78 4.25 4.462l2.08.504c2.137.503 3.076 1.241 3.076 2.471 0 1.432-1.476 2.472-3.49 2.472-2.158 0-3.656-.973-3.869-2.505h-2.483zM67.569 28.038c-1.598 0-2.979.798-3.691 2.136h-.173v-1.942h-2.233V43.89h2.32v-5.687h.183c.615 1.241 1.943 1.975 3.615 1.975 2.968 0 4.856-2.342 4.856-6.076 0-3.733-1.888-6.064-4.877-6.064zm-.659 10.057c-1.942 0-3.161-1.532-3.161-3.982 0-2.46 1.219-3.992 3.172-3.992 1.964 0 3.14 1.5 3.14 3.981 0 2.493-1.176 3.993-3.15 3.993zM80.564 28.038c-1.597 0-2.978.798-3.69 2.136H76.7v-1.942h-2.234V43.89h2.32v-5.687h.184c.615 1.241 1.942 1.975 3.615 1.975 2.967 0 4.856-2.342 4.856-6.076 0-3.733-1.889-6.064-4.878-6.064zm-.658 10.057c-1.942 0-3.162-1.532-3.162-3.982 0-2.46 1.22-3.992 3.173-3.992 1.964 0 3.14 1.5 3.14 3.981 0 2.493-1.176 3.993-3.15 3.993zM57.309 39.983h2.662l-5.827-16.139h-2.696l-5.827 16.14h2.572l1.488-4.284h6.152l1.476 4.283zm-4.642-13.208h.19l2.338 6.822H50.32l2.348-6.823zM47.18 11.67v7.786h2.81c2.32 0 3.664-1.43 3.664-3.917 0-2.45-1.354-3.868-3.663-3.868H47.18zm1.208 1.101h1.468c1.613 0 2.568 1.026 2.568 2.784 0 1.786-.939 2.8-2.568 2.8h-1.468v-5.584zM57.769 19.57c1.716 0 2.768-1.15 2.768-3.054 0-1.894-1.058-3.049-2.768-3.049-1.716 0-2.773 1.155-2.773 3.049 0 1.905 1.052 3.054 2.773 3.054zm0-1.03c-1.009 0-1.576-.74-1.576-2.024 0-1.273.567-2.018 1.576-2.018 1.004 0 1.575.745 1.575 2.018 0 1.279-.572 2.023-1.575 2.023zM69.497 13.58h-1.16l-1.047 4.484h-.092l-1.208-4.483h-1.112l-1.209 4.483h-.086l-1.052-4.483h-1.176l1.618 5.875h1.193l1.208-4.327h.092l1.214 4.327h1.203l1.614-5.875zM70.832 19.456h1.16V16.02c0-.918.545-1.49 1.403-1.49s1.268.47 1.268 1.414v3.512h1.16v-3.803c0-1.398-.723-2.186-2.034-2.186-.885 0-1.467.394-1.753 1.047h-.087v-.933h-1.117v5.875zM77.65 19.456h1.16v-8.168h-1.16v8.168zM83.173 19.57c1.716 0 2.768-1.15 2.768-3.054 0-1.894-1.058-3.049-2.768-3.049-1.716 0-2.773 1.155-2.773 3.049 0 1.905 1.052 3.054 2.773 3.054zm0-1.03c-1.009 0-1.575-.74-1.575-2.024 0-1.273.566-2.018 1.575-2.018 1.004 0 1.576.745 1.576 2.018 0 1.279-.572 2.023-1.576 2.023zM89.397 18.577c-.63 0-1.09-.308-1.09-.836 0-.518.367-.793 1.177-.847l1.435-.092v.49c0 .73-.648 1.285-1.522 1.285zm-.296.977c.771 0 1.413-.335 1.764-.923h.092v.825h1.117v-4.014c0-1.24-.831-1.975-2.304-1.975-1.333 0-2.283.648-2.401 1.657h1.122c.13-.416.577-.653 1.225-.653.793 0 1.203.35 1.203.971v.507l-1.592.092c-1.397.086-2.185.696-2.185 1.754 0 1.073.826 1.759 1.959 1.759zM96.01 19.554c.81 0 1.495-.383 1.845-1.026h.092v.928h1.112v-8.168h-1.16v3.226h-.087c-.318-.647-.998-1.03-1.802-1.03-1.484 0-2.439 1.176-2.439 3.032 0 1.861.945 3.038 2.44 3.038zm.33-5.03c.97 0 1.58.773 1.58 1.997 0 1.23-.604 1.991-1.58 1.991-.983 0-1.57-.75-1.57-1.996 0-1.236.593-1.991 1.57-1.991zM106.581 19.57c1.716 0 2.768-1.15 2.768-3.054 0-1.894-1.058-3.049-2.768-3.049-1.716 0-2.773 1.155-2.773 3.049 0 1.905 1.052 3.054 2.773 3.054zm0-1.03c-1.009 0-1.576-.74-1.576-2.024 0-1.273.567-2.018 1.576-2.018 1.004 0 1.575.745 1.575 2.018 0 1.279-.571 2.023-1.575 2.023zM110.884 19.456h1.16V16.02c0-.918.545-1.49 1.403-1.49s1.268.47 1.268 1.414v3.512h1.16v-3.803c0-1.398-.723-2.186-2.034-2.186-.885 0-1.467.394-1.753 1.047h-.087v-.933h-1.117v5.875zM121.218 12.119v1.489h-.934v.976h.934v3.319c0 1.133.512 1.586 1.802 1.586.227 0 .442-.027.631-.06v-.965c-.162.016-.264.027-.442.027-.577 0-.831-.27-.831-.885v-3.022h1.273v-.976h-1.273v-1.49h-1.16zM125.208 19.456h1.16v-3.431c0-.89.529-1.49 1.479-1.49.82 0 1.257.476 1.257 1.414v3.507h1.16v-3.793c0-1.397-.772-2.19-2.023-2.19-.885 0-1.506.394-1.792 1.052h-.091v-3.237h-1.15v8.168zM134.449 14.455c.858 0 1.419.599 1.446 1.521h-2.968c.065-.917.664-1.521 1.522-1.521zm1.44 3.415c-.215.459-.696.712-1.397.712-.928 0-1.527-.652-1.565-1.683v-.065h4.149v-.404c0-1.846-.987-2.963-2.622-2.963-1.656 0-2.708 1.193-2.708 3.07 0 1.878 1.03 3.033 2.714 3.033 1.343 0 2.282-.648 2.546-1.7h-1.117zM33.032 26.738a6.486 6.486 0 013.064-5.398 6.666 6.666 0 00-5.189-2.805c-2.183-.23-4.299 1.306-5.411 1.306-1.134 0-2.847-1.283-4.691-1.245a6.967 6.967 0 00-5.815 3.546c-2.514 4.353-.639 10.75 1.77 14.269 1.204 1.723 2.613 3.647 4.455 3.579 1.803-.075 2.477-1.15 4.654-1.15 2.156 0 2.788 1.15 4.668 1.107 1.935-.032 3.154-1.731 4.316-3.47a14.254 14.254 0 001.974-4.02 6.272 6.272 0 01-3.795-5.72zM29.481 16.22a6.334 6.334 0 001.45-4.537c-1.613.17-3.102.94-4.17 2.158a6.082 6.082 0 00-1.488 4.37 5.391 5.391 0 004.208-1.99z" fill="#fff"/><rect x="1.483" y=".997" width="154.7" height="50.7" rx="5.35" stroke="#A6A6A6" stroke-width="1.3"/></svg>