<svg width="158" height="48" fill="none" xmlns="http://www.w3.org/2000/svg"><rect x=".6" y=".6" width="156.8" height="46.8" rx="5.4" fill="#fff"/><path d="M107.342 23.04v2.75h-1.89v1.803h1.89v6.126c0 2.092 1.039 2.929 3.651 2.929.459 0 .896-.05 1.279-.11v-1.783c-.328.03-.536.05-.897.05-1.169 0-1.683-.498-1.683-1.634v-5.578h2.58V25.79h-2.58v-2.75h-2.35zM118.926 36.797c3.475 0 5.607-2.122 5.607-5.638 0-3.496-2.143-5.628-5.607-5.628-3.476 0-5.618 2.132-5.618 5.628 0 3.516 2.131 5.638 5.618 5.638zm0-1.903c-2.044 0-3.192-1.364-3.192-3.735 0-2.35 1.148-3.725 3.192-3.725 2.033 0 3.191 1.374 3.191 3.725 0 2.36-1.158 3.735-3.191 3.735zM126.356 36.588h2.35v-6.405c0-1.524 1.257-2.55 3.038-2.55.416 0 1.115.07 1.312.13V25.65c-.252-.06-.7-.09-1.049-.09-1.552 0-2.875.777-3.214 1.843h-.175V25.74h-2.262v10.848zM138.89 27.354c1.738 0 2.875 1.106 2.929 2.809h-6.011c.131-1.693 1.345-2.809 3.082-2.809zm2.918 6.305c-.437.847-1.409 1.315-2.83 1.315-1.88 0-3.093-1.205-3.17-3.108v-.12h8.405V31c0-3.407-2-5.469-5.312-5.469-3.355 0-5.486 2.202-5.486 5.668s2.087 5.598 5.497 5.598c2.722 0 4.623-1.195 5.159-3.138h-2.263zM91.933 32.582c.181 2.664 2.616 4.367 6.241 4.367 3.875 0 6.299-1.786 6.299-4.635 0-2.24-1.382-3.48-4.735-4.192l-1.801-.403c-2.13-.454-2.991-1.063-2.991-2.127 0-1.342 1.337-2.22 3.342-2.22 1.903 0 3.217.858 3.455 2.23h2.469c-.147-2.508-2.571-4.273-5.89-4.273-3.569 0-5.948 1.765-5.948 4.418 0 2.19 1.349 3.49 4.305 4.12l2.107.464c2.164.465 3.115 1.146 3.115 2.282 0 1.322-1.495 2.282-3.534 2.282-2.186 0-3.704-.899-3.92-2.313h-2.514zM67.591 25.561c-1.617 0-3.016.737-3.738 1.972h-.175V25.74h-2.262v14.454h2.35v-5.25h.186c.623 1.146 1.967 1.823 3.66 1.823 3.007 0 4.92-2.161 4.92-5.608 0-3.446-1.913-5.598-4.94-5.598zm-.667 9.284c-1.967 0-3.202-1.415-3.202-3.676 0-2.271 1.235-3.686 3.213-3.686 1.99 0 3.18 1.385 3.18 3.676 0 2.301-1.19 3.686-3.19 3.686zM80.754 25.561c-1.618 0-3.017.737-3.738 1.972h-.175V25.74h-2.263v14.454h2.35v-5.25h.186c.623 1.146 1.967 1.823 3.661 1.823 3.006 0 4.919-2.161 4.919-5.608 0-3.446-1.913-5.598-4.94-5.598zm-.667 9.284c-1.967 0-3.203-1.415-3.203-3.676 0-2.271 1.236-3.686 3.214-3.686 1.989 0 3.18 1.385 3.18 3.676 0 2.301-1.191 3.686-3.191 3.686zM57.2 36.588h2.696L53.994 21.69h-2.73l-5.902 14.898h2.606l1.506-3.954h6.23l1.496 3.954zm-4.701-12.193h.192l2.368 6.298H50.12l2.379-6.298zM46.94 10.453v7.187h2.848c2.35 0 3.71-1.32 3.71-3.616 0-2.261-1.372-3.571-3.71-3.571H46.94zm1.224 1.016h1.487c1.634 0 2.601.946 2.601 2.57 0 1.648-.95 2.585-2.601 2.585h-1.487v-5.155zM57.665 17.744c1.738 0 2.804-1.06 2.804-2.819 0-1.748-1.071-2.814-2.804-2.814-1.737 0-2.808 1.066-2.808 2.814 0 1.758 1.065 2.82 2.808 2.82zm0-.951c-1.021 0-1.595-.683-1.595-1.868 0-1.175.574-1.863 1.595-1.863 1.017 0 1.596.688 1.596 1.863 0 1.18-.58 1.868-1.596 1.868zM69.543 12.216h-1.175l-1.06 4.139h-.093l-1.224-4.14h-1.125l-1.224 4.14h-.088l-1.066-4.14h-1.19l1.639 5.425h1.207l1.224-3.995h.093l1.23 3.995h1.218l1.634-5.424zM70.897 17.64h1.174v-3.173c0-.847.552-1.375 1.421-1.375.87 0 1.284.434 1.284 1.305v3.243h1.175v-3.512c0-1.29-.732-2.017-2.06-2.017-.896 0-1.486.364-1.776.966h-.087v-.861h-1.132v5.424zM77.802 17.64h1.175V10.1h-1.175v7.54zM83.395 17.744c1.738 0 2.804-1.06 2.804-2.819 0-1.748-1.071-2.814-2.804-2.814-1.737 0-2.808 1.066-2.808 2.814 0 1.758 1.065 2.82 2.808 2.82zm0-.951c-1.022 0-1.595-.683-1.595-1.868 0-1.175.573-1.863 1.595-1.863 1.017 0 1.596.688 1.596 1.863 0 1.18-.58 1.868-1.596 1.868zM89.7 16.828c-.64 0-1.105-.284-1.105-.772 0-.478.372-.732 1.192-.782l1.453-.085v.453c0 .673-.655 1.186-1.54 1.186zm-.301.901c.781 0 1.432-.309 1.787-.851h.093v.762h1.13v-3.706c0-1.145-.84-1.823-2.333-1.823-1.35 0-2.311.598-2.431 1.53h1.136c.131-.384.585-.603 1.24-.603.804 0 1.22.323 1.22.896v.468l-1.613.085c-1.415.08-2.213.642-2.213 1.619 0 .99.836 1.623 1.984 1.623zM96.397 17.73c.82 0 1.514-.354 1.869-.947h.093v.857h1.125V10.1H98.31v2.977h-.088c-.322-.597-1.01-.95-1.825-.95-1.503 0-2.47 1.085-2.47 2.798 0 1.718.956 2.804 2.47 2.804zm.333-4.643c.984 0 1.601.713 1.601 1.843 0 1.136-.612 1.838-1.6 1.838-.995 0-1.591-.692-1.591-1.843 0-1.14.601-1.838 1.59-1.838zM107.103 17.744c1.738 0 2.804-1.06 2.804-2.819 0-1.748-1.071-2.814-2.804-2.814-1.737 0-2.809 1.066-2.809 2.814 0 1.758 1.066 2.82 2.809 2.82zm0-.951c-1.022 0-1.595-.683-1.595-1.868 0-1.175.573-1.863 1.595-1.863 1.017 0 1.596.688 1.596 1.863 0 1.18-.579 1.868-1.596 1.868zM111.462 17.64h1.175v-3.173c0-.847.552-1.375 1.421-1.375s1.284.434 1.284 1.305v3.243h1.175v-3.512c0-1.29-.733-2.017-2.06-2.017-.897 0-1.487.364-1.776.966h-.088v-.861h-1.131v5.424zM121.928 10.866v1.375h-.946v.901h.946v3.063c0 1.046.519 1.464 1.825 1.464.23 0 .448-.024.639-.054v-.892c-.163.015-.267.025-.448.025-.584 0-.841-.249-.841-.817v-2.789h1.289v-.901h-1.289v-1.375h-1.175zM125.97 17.64h1.174v-3.168c0-.822.536-1.375 1.498-1.375.83 0 1.273.439 1.273 1.305v3.238h1.175v-3.502c0-1.29-.781-2.022-2.049-2.022-.897 0-1.525.364-1.815.971h-.092V10.1h-1.164v7.54zM135.328 13.023c.869 0 1.438.553 1.465 1.404h-3.006c.066-.846.672-1.404 1.541-1.404zm1.459 3.152c-.218.424-.705.658-1.415.658-.94 0-1.546-.603-1.585-1.554v-.06h4.203v-.373c0-1.704-1-2.735-2.656-2.735-1.678 0-2.743 1.1-2.743 2.834 0 1.733 1.043 2.8 2.748 2.8 1.361 0 2.312-.599 2.58-1.57h-1.132zM32.613 24.361c.029-2.017 1.217-3.926 3.103-4.982-1.19-1.549-3.182-2.53-5.255-2.59-2.211-.21-4.355 1.206-5.481 1.206-1.149 0-2.884-1.184-4.752-1.15-2.434.072-4.704 1.334-5.889 3.274-2.546 4.018-.647 9.923 1.792 13.171 1.22 1.59 2.647 3.367 4.513 3.304 1.827-.069 2.509-1.061 4.713-1.061 2.184 0 2.824 1.061 4.728 1.021 1.96-.029 3.195-1.597 4.372-3.203a12.717 12.717 0 002-3.71c-2.303-.888-3.841-3-3.844-5.28zM29.016 14.654c1.069-1.17 1.595-2.672 1.468-4.19-1.633.157-3.14.868-4.224 1.992-1.059 1.099-1.61 2.575-1.505 4.034 1.633.015 3.238-.676 4.261-1.836z" fill="#000"/><rect x=".6" y=".6" width="156.8" height="46.8" rx="5.4" stroke="#767680" stroke-width="1.2"/></svg>