<svg width="176" height="52" fill="none" xmlns="http://www.w3.org/2000/svg"><path d="M174.829 45.296c0 2.703-2.236 4.893-5.001 4.893H6.181c-2.764 0-5.007-2.19-5.007-4.893V6.273c0-2.703 2.243-4.9 5.007-4.9h163.646c2.766 0 5.001 2.197 5.001 4.9l.001 39.023z" fill="#000"/><path d="M169.301 1.432c3.011 0 5.461 2.39 5.461 5.325v38.048c0 2.936-2.45 5.325-5.461 5.325H6.702c-3.011 0-5.462-2.389-5.462-5.325V6.757c0-2.936 2.45-5.325 5.462-5.325h162.599zm0-1.016H6.702C3.127.416.198 3.27.198 6.757v38.048c0 3.486 2.929 6.342 6.504 6.342h162.599c3.575 0 6.504-2.856 6.504-6.342V6.757c0-3.486-2.929-6.341-6.504-6.341z" fill="#A6A6A6"/><path d="M39.389 25.507c-.038-4.088 3.432-6.076 3.59-6.169-1.965-2.794-5.011-3.175-6.081-3.206-2.56-.262-5.041 1.493-6.345 1.493-1.329 0-3.336-1.468-5.5-1.424-2.783.041-5.387 1.613-6.815 4.053-2.948 4.975-.75 12.287 2.074 16.309 1.413 1.97 3.064 4.168 5.224 4.091 2.114-.085 2.904-1.314 5.455-1.314 2.527 0 3.269 1.314 5.472 1.265 2.269-.036 3.697-1.979 5.06-3.966 1.633-2.258 2.288-4.481 2.314-4.595-.053-.018-4.406-1.637-4.449-6.537zM35.226 13.486c1.137-1.386 1.915-3.272 1.699-5.185-1.646.07-3.704 1.11-4.889 2.465-1.048 1.195-1.985 3.153-1.743 4.995 1.849.134 3.747-.91 4.933-2.274zM69.98 40.371h-2.955l-1.618-4.957h-5.624L58.24 40.37h-2.876l5.573-16.878h3.442l5.6 16.878zm-5.06-7.037l-1.464-4.408c-.155-.45-.445-1.51-.873-3.18h-.052c-.17.719-.445 1.779-.822 3.18l-1.437 4.408h4.648zM84.31 34.136c0 2.07-.573 3.706-1.72 4.907-1.028 1.07-2.304 1.604-3.827 1.604-1.644 0-2.826-.576-3.545-1.728h-.052v6.411h-2.773V32.208a81.22 81.22 0 00-.103-4.007h2.439l.155 1.93h.052c.925-1.454 2.328-2.18 4.212-2.18 1.472 0 2.702.567 3.685 1.702.986 1.137 1.478 2.63 1.478 4.483zm-2.825.1c0-1.185-.273-2.162-.822-2.93-.6-.802-1.405-1.203-2.414-1.203-.684 0-1.306.224-1.861.664a3.066 3.066 0 00-1.092 1.741 3.455 3.455 0 00-.129.824v2.03c0 .885.279 1.632.835 2.242.557.61 1.28.914 2.17.914 1.045 0 1.858-.393 2.44-1.177.582-.785.873-1.82.873-3.106zM98.667 34.136c0 2.07-.574 3.706-1.722 4.907-1.027 1.07-2.303 1.604-3.826 1.604-1.644 0-2.825-.576-3.543-1.728h-.052v6.411H86.75V32.208c0-1.302-.035-2.637-.103-4.007h2.44l.154 1.93h.052c.924-1.454 2.327-2.18 4.212-2.18 1.471 0 2.7.567 3.687 1.702.982 1.137 1.475 2.63 1.475 4.483zm-2.826.1c0-1.185-.274-2.162-.823-2.93-.6-.802-1.402-1.203-2.413-1.203-.685 0-1.306.224-1.863.664a3.064 3.064 0 00-1.09 1.741 3.523 3.523 0 00-.129.824v2.03c0 .885.279 1.632.833 2.242.557.609 1.28.914 2.172.914 1.045 0 1.858-.393 2.44-1.177.582-.785.873-1.82.873-3.106zM114.719 35.638c0 1.436-.511 2.604-1.538 3.506-1.128.985-2.698 1.477-4.715 1.477-1.863 0-3.356-.35-4.487-1.051l.643-2.254a7.752 7.752 0 004.009 1.078c1.045 0 1.858-.23 2.442-.69.581-.459.871-1.075.871-1.844 0-.685-.239-1.262-.719-1.73-.478-.468-1.275-.903-2.388-1.305-3.031-1.102-4.545-2.717-4.545-4.84 0-1.387.53-2.525 1.593-3.41 1.059-.886 2.472-1.33 4.238-1.33 1.575 0 2.884.268 3.928.802l-.693 2.205c-.975-.518-2.078-.776-3.313-.776-.976 0-1.738.234-2.284.7-.462.418-.693.927-.693 1.53 0 .666.264 1.218.794 1.652.462.4 1.301.834 2.519 1.302 1.489.585 2.583 1.268 3.287 2.052.701.781 1.051 1.76 1.051 2.926zM123.888 30.23h-3.057v5.91c0 1.502.539 2.253 1.618 2.253.496 0 .907-.042 1.232-.126l.077 2.053c-.546.2-1.266.3-2.157.3-1.095 0-1.951-.326-2.569-.977-.615-.652-.925-1.745-.925-3.28v-6.135h-1.821v-2.03h1.821V25.97l2.724-.801v3.03h3.057v2.031zM137.68 34.186c0 1.87-.549 3.407-1.644 4.608-1.149 1.236-2.673 1.853-4.574 1.853-1.831 0-3.289-.593-4.377-1.777-1.087-1.185-1.631-2.68-1.631-4.482 0-1.886.559-3.431 1.682-4.632 1.12-1.202 2.632-1.804 4.532-1.804 1.831 0 3.305.593 4.417 1.779 1.064 1.15 1.595 2.635 1.595 4.455zm-2.877.087c0-1.122-.246-2.085-.744-2.887-.582-.972-1.413-1.456-2.49-1.456-1.115 0-1.961.485-2.543 1.456-.498.804-.744 1.782-.744 2.938 0 1.123.246 2.085.744 2.887.6.971 1.437 1.456 2.518 1.456 1.059 0 1.89-.495 2.49-1.482.511-.818.769-1.79.769-2.912zM146.695 30.579a4.944 4.944 0 00-.874-.075c-.976 0-1.73.36-2.261 1.078-.462.634-.693 1.436-.693 2.404v6.385h-2.772l.026-8.337c0-1.403-.035-2.68-.104-3.832h2.415l.102 2.329h.076c.293-.8.755-1.445 1.387-1.928a3.41 3.41 0 012.005-.652c.256 0 .487.018.693.05v2.578zM159.098 33.71c0 .485-.033.893-.101 1.227h-8.32c.032 1.202.434 2.122 1.207 2.756.701.567 1.608.85 2.721.85 1.232 0 2.356-.19 3.367-.575l.434 1.877c-1.181.502-2.576.752-4.185.752-1.935 0-3.455-.556-4.56-1.665-1.103-1.11-1.656-2.6-1.656-4.47 0-1.835.514-3.363 1.543-4.582 1.077-1.301 2.532-1.952 4.364-1.952 1.799 0 3.161.65 4.086 1.952.732 1.034 1.1 2.312 1.1 3.83zm-2.645-.701c.019-.802-.162-1.494-.538-2.079-.48-.752-1.218-1.127-2.21-1.127-.907 0-1.644.366-2.208 1.102-.461.585-.736 1.286-.82 2.103h5.776v.001zM64.002 13.11c0 1.493-.459 2.616-1.376 3.371-.85.696-2.057 1.045-3.62 1.045-.775 0-1.439-.033-1.994-.099V9.271a15.086 15.086 0 012.348-.173c1.489 0 2.612.316 3.369.948.848.714 1.273 1.735 1.273 3.064zm-1.437.037c0-.968-.263-1.71-.788-2.227-.526-.517-1.294-.775-2.304-.775-.43 0-.795.028-1.098.086v6.2c.168.026.475.037.92.037 1.044 0 1.85-.282 2.416-.848.568-.566.854-1.39.854-2.473zM71.624 14.414c0 .92-.27 1.673-.808 2.264-.564.607-1.312.91-2.246.91-.9 0-1.617-.29-2.152-.874-.533-.582-.8-1.316-.8-2.201 0-.926.275-1.686.826-2.276.552-.59 1.293-.885 2.227-.885.9 0 1.623.29 2.171.873.52.565.782 1.296.782 2.189zm-1.414.043c0-.552-.122-1.025-.366-1.42-.286-.476-.693-.715-1.222-.715-.548 0-.964.239-1.25.716-.245.394-.366.875-.366 1.443 0 .552.122 1.025.366 1.42.295.476.706.715 1.237.715.52 0 .928-.243 1.222-.729.253-.402.379-.878.379-1.43zM81.842 11.474l-1.918 5.979h-1.249l-.795-2.597a19.045 19.045 0 01-.493-1.931h-.025c-.118.657-.282 1.3-.492 1.931l-.845 2.597h-1.263l-1.804-5.98h1.401l.693 2.843c.168.672.306 1.313.416 1.919h.025c.102-.5.27-1.136.506-1.906l.87-2.854h1.111l.834 2.793c.202.681.366 1.337.492 1.968h.038c.092-.615.231-1.27.416-1.968l.744-2.793h1.338v-.001zM88.91 17.453h-1.363v-3.425c0-1.055-.411-1.583-1.236-1.583-.405 0-.731.145-.985.435a1.52 1.52 0 00-.378 1.025v3.546h-1.363v-4.269c0-.525-.017-1.094-.05-1.71h1.198l.064.934h.038c.158-.29.395-.53.706-.722.37-.223.783-.336 1.236-.336.572 0 1.048.18 1.427.542.47.442.706 1.103.706 1.981v3.582zM92.67 17.453h-1.362V8.73h1.361v8.722zM100.694 14.414c0 .92-.269 1.673-.808 2.264-.564.607-1.313.91-2.246.91-.901 0-1.618-.29-2.151-.874-.534-.582-.8-1.316-.8-2.201 0-.926.274-1.686.826-2.276.551-.59 1.293-.885 2.225-.885.902 0 1.624.29 2.172.873.521.565.782 1.296.782 2.189zm-1.415.043c0-.552-.122-1.025-.366-1.42-.284-.476-.693-.715-1.221-.715-.549 0-.965.239-1.25.716-.245.394-.366.875-.366 1.443 0 .552.123 1.025.366 1.42.295.476.706.715 1.237.715.52 0 .927-.243 1.221-.729.254-.402.379-.878.379-1.43zM107.293 17.453h-1.224l-.102-.69h-.037c-.419.55-1.016.825-1.792.825-.578 0-1.047-.181-1.399-.541-.32-.328-.48-.735-.48-1.218 0-.73.312-1.287.94-1.673.627-.385 1.509-.574 2.645-.565v-.112c0-.788-.424-1.18-1.274-1.18-.605 0-1.138.148-1.598.442l-.277-.873c.569-.343 1.273-.516 2.103-.516 1.602 0 2.406.825 2.406 2.473v2.202c0 .597.03 1.073.089 1.425zm-1.415-2.055v-.922c-1.504-.026-2.256.377-2.256 1.205 0 .312.086.545.261.701a.97.97 0 00.666.233c.3 0 .579-.092.834-.276a1.125 1.125 0 00.495-.941zM115.039 17.453h-1.21l-.063-.96h-.038c-.386.73-1.045 1.095-1.97 1.095-.738 0-1.354-.283-1.841-.848-.488-.566-.731-1.3-.731-2.202 0-.968.264-1.751.794-2.35.514-.558 1.144-.837 1.893-.837.823 0 1.4.27 1.727.812h.026V8.73h1.365v7.11c0 .583.016 1.12.048 1.612zm-1.413-2.522v-.997a1.96 1.96 0 00-.037-.418 1.509 1.509 0 00-.493-.806 1.362 1.362 0 00-.912-.326c-.509 0-.907.197-1.199.591-.291.395-.438.899-.438 1.514 0 .59.14 1.07.419 1.44.296.392.694.589 1.192.589.447 0 .805-.164 1.077-.492.263-.303.391-.669.391-1.095zM126.698 14.414c0 .92-.269 1.673-.808 2.264-.564.607-1.311.91-2.246.91-.899 0-1.616-.29-2.152-.874-.533-.582-.8-1.316-.8-2.201 0-.926.275-1.686.826-2.276.552-.59 1.293-.885 2.229-.885.898 0 1.623.29 2.169.873.521.565.782 1.296.782 2.189zm-1.413.043c0-.552-.122-1.025-.365-1.42-.288-.476-.693-.715-1.224-.715-.546 0-.963.239-1.25.716-.245.394-.366.875-.366 1.443 0 .552.123 1.025.366 1.42.295.476.706.715 1.237.715.52 0 .93-.243 1.224-.729.251-.402.378-.878.378-1.43zM134.028 17.453h-1.362v-3.425c0-1.055-.411-1.583-1.237-1.583a1.24 1.24 0 00-.984.435c-.252.29-.378.633-.378 1.025v3.546h-1.365v-4.269c0-.525-.015-1.094-.048-1.71h1.197l.064.934h.037c.16-.29.397-.53.707-.722a2.353 2.353 0 011.237-.336c.571 0 1.047.18 1.426.542.472.442.706 1.103.706 1.981v3.582zM143.202 12.47h-1.501v2.904c0 .738.267 1.107.795 1.107.245 0 .447-.02.607-.062l.036 1.008c-.27.099-.623.149-1.059.149-.539 0-.958-.16-1.261-.48-.304-.32-.455-.857-.455-1.612V12.47h-.896v-.996h.896v-1.096l1.336-.393v1.488h1.501v.996h.001zM150.419 17.453h-1.364v-3.4c0-1.071-.411-1.608-1.235-1.608-.632 0-1.064.311-1.301.933-.04.13-.063.29-.063.478v3.595h-1.362v-8.72h1.362v3.603h.026c.429-.656 1.044-.983 1.842-.983.564 0 1.031.18 1.402.541.462.45.693 1.12.693 2.006v3.555zM157.863 14.18c0 .239-.018.44-.051.603h-4.088c.018.59.213 1.041.591 1.353.346.28.793.419 1.339.419.605 0 1.156-.094 1.653-.283l.214.923c-.582.246-1.266.37-2.058.37-.95 0-1.698-.274-2.239-.819-.544-.545-.813-1.277-.813-2.195 0-.902.251-1.653.757-2.252.528-.639 1.242-.958 2.144-.958.882 0 1.552.32 2.004.959.366.507.547 1.135.547 1.88zm-1.301-.343c.01-.395-.079-.735-.264-1.021-.237-.37-.597-.555-1.085-.555-.445 0-.808.18-1.085.542-.226.288-.36.632-.404 1.034h2.838z" fill="#fff"/></svg>