<svg width="158" height="48" fill="none" xmlns="http://www.w3.org/2000/svg"><rect x=".6" y=".6" width="156.8" height="46.8" rx="5.4" fill="#fff"/><path d="M79.744 26.1c-2.752 0-4.996 2.148-4.996 5.104 0 2.94 2.243 5.104 4.996 5.104 2.754 0 4.998-2.165 4.998-5.104-.002-2.956-2.245-5.103-4.998-5.103zm0 8.2c-1.508 0-2.809-1.276-2.809-3.094 0-1.837 1.302-3.094 2.81-3.094s2.808 1.257 2.808 3.094c0 1.817-1.3 3.093-2.809 3.093zm-10.9-8.2c-2.753 0-4.997 2.148-4.997 5.104 0 2.94 2.244 5.104 4.996 5.104 2.754 0 4.998-2.165 4.998-5.104 0-2.956-2.244-5.103-4.998-5.103zm0 8.2c-1.51 0-2.81-1.276-2.81-3.094 0-1.837 1.302-3.094 2.81-3.094s2.808 1.257 2.808 3.094c.001 1.817-1.3 3.093-2.809 3.093zm-12.966-6.632v2.165h5.054c-.151 1.218-.547 2.107-1.15 2.725-.736.754-1.886 1.585-3.904 1.585-3.11 0-5.543-2.571-5.543-5.76 0-3.19 2.432-5.762 5.543-5.762 1.678 0 2.904.677 3.808 1.547l1.49-1.528c-1.264-1.237-2.94-2.184-5.298-2.184-4.261 0-7.844 3.557-7.844 7.926 0 4.37 3.583 7.926 7.844 7.926 2.3 0 4.035-.774 5.392-2.224 1.395-1.43 1.83-3.441 1.83-5.065 0-.501-.038-.966-.114-1.352h-7.108v.001zm53.027 1.681c-.414-1.14-1.678-3.248-4.261-3.248-2.564 0-4.696 2.069-4.696 5.104 0 2.86 2.113 5.103 4.94 5.103 2.281 0 3.602-1.43 4.149-2.262l-1.697-1.16c-.565.85-1.339 1.41-2.452 1.41-1.111 0-1.904-.521-2.413-1.546l6.656-2.822-.226-.579zm-6.788 1.702c-.056-1.973 1.49-2.977 2.603-2.977.867 0 1.602.445 1.848 1.082l-4.451 1.895zM96.707 36h2.186V20.998h-2.187V36zm-3.584-8.758h-.075c-.49-.6-1.434-1.141-2.62-1.141-2.49 0-4.771 2.243-4.771 5.124 0 2.86 2.281 5.084 4.77 5.084 1.188 0 2.13-.54 2.62-1.159h.076v.735c0 1.952-1.019 2.996-2.658 2.996-1.34 0-2.169-.985-2.508-1.817l-1.904.813c.546 1.352 1.997 3.015 4.412 3.015 2.564 0 4.733-1.547 4.733-5.317v-9.163h-2.074v.83h-.001zM90.616 34.3c-1.509 0-2.772-1.296-2.772-3.074 0-1.799 1.263-3.113 2.772-3.113 1.489 0 2.658 1.314 2.658 3.113 0 1.778-1.17 3.074-2.658 3.074zM119.15 21h-5.233v15h2.183v-5.683h3.048c2.421 0 4.801-1.796 4.801-4.658s-2.379-4.66-4.799-4.66zm.056 7.23h-3.106v-5.142h3.106c1.632 0 2.559 1.386 2.559 2.571 0 1.162-.927 2.57-2.559 2.57zm13.496-2.154c-1.581 0-3.218.713-3.896 2.296l1.938.83c.415-.83 1.187-1.1 1.996-1.1 1.129 0 2.277.694 2.296 1.929v.154c-.395-.231-1.243-.578-2.277-.578-2.089 0-4.217 1.177-4.217 3.377 0 2.008 1.713 3.3 3.633 3.3 1.467 0 2.277-.676 2.785-1.468h.075v1.158h2.109v-5.751c.001-2.662-1.939-4.148-4.442-4.148zm-.264 8.22c-.714 0-1.712-.367-1.712-1.274 0-1.158 1.243-1.602 2.316-1.602.958 0 1.411.213 1.994.502-.17 1.39-1.336 2.375-2.598 2.375zm12.386-7.893l-2.503 6.504h-.075l-2.599-6.504h-2.352l3.896 9.09-2.221 5.057h2.277l6.005-14.147h-2.428zM125.156 36h2.182V20.998h-2.182V36zM55.497 12.292c0 1.005-.29 1.806-.872 2.403-.66.71-1.522 1.066-2.58 1.066-1.013 0-1.876-.36-2.584-1.08-.709-.721-1.063-1.614-1.063-2.68s.354-1.96 1.063-2.68c.708-.72 1.571-1.08 2.584-1.08.504 0 .985.1 1.441.3.458.202.824.47 1.098.805l-.617.633c-.464-.57-1.105-.854-1.923-.854-.74 0-1.378.266-1.918.8-.54.532-.809 1.224-.809 2.075 0 .851.27 1.543.81 2.076.539.533 1.178.8 1.917.8.785 0 1.439-.268 1.962-.805.34-.349.536-.835.589-1.458h-2.55v-.865h3.402c.035.189.05.37.05.544zM60.892 9.285h-3.197v2.282h2.884v.865h-2.884v2.283h3.197v.885h-4.1V8.4h4.1v.885zM64.697 15.6h-.902V9.285h-1.962V8.4h4.826v.885h-1.962V15.6zM70.15 15.6V8.4h.902v7.2h-.902zM75.054 15.6h-.902V9.285H72.19V8.4h4.826v.885h-1.962V15.6zM86.15 14.67c-.69.728-1.549 1.091-2.575 1.091-1.026 0-1.884-.363-2.574-1.09-.69-.728-1.034-1.618-1.034-2.67 0-1.053.344-1.944 1.034-2.67.69-.728 1.548-1.093 2.574-1.093 1.02 0 1.877.366 2.57 1.097.693.73 1.04 1.619 1.04 2.665 0 1.053-.346 1.943-1.035 2.67zm-4.483-.603c.52.54 1.156.809 1.908.809.753 0 1.39-.27 1.908-.81.52-.54.78-1.228.78-2.066 0-.837-.26-1.526-.78-2.066a2.542 2.542 0 00-1.908-.809c-.752 0-1.388.27-1.908.809-.518.54-.779 1.229-.779 2.066 0 .838.261 1.527.78 2.067zM88.45 15.6V8.4h1.099L92.96 14h.04l-.04-1.386V8.4h.903v7.2h-.942L89.35 9.727h-.039l.039 1.388V15.6h-.9z" fill="#000"/><path d="M55.497 12.292c0 1.005-.29 1.806-.872 2.403-.66.71-1.522 1.066-2.58 1.066-1.013 0-1.876-.36-2.584-1.08-.709-.721-1.063-1.614-1.063-2.68s.354-1.96 1.063-2.68c.708-.72 1.571-1.08 2.584-1.08.504 0 .985.1 1.441.3.458.202.824.47 1.098.805l-.617.633c-.464-.57-1.105-.854-1.923-.854-.74 0-1.378.266-1.918.8-.54.532-.809 1.224-.809 2.075 0 .851.27 1.543.81 2.076.539.533 1.178.8 1.917.8.785 0 1.439-.268 1.962-.805.34-.349.536-.835.589-1.458h-2.55v-.865h3.402c.035.189.05.37.05.544zM60.892 9.285h-3.197v2.282h2.884v.865h-2.884v2.283h3.197v.885h-4.1V8.4h4.1v.885zM64.697 15.6h-.902V9.285h-1.962V8.4h4.826v.885h-1.962V15.6zM70.15 15.6V8.4h.902v7.2h-.902zM75.054 15.6h-.902V9.285H72.19V8.4h4.826v.885h-1.962V15.6zM86.15 14.67c-.69.728-1.549 1.091-2.575 1.091-1.026 0-1.884-.363-2.574-1.09-.69-.728-1.034-1.618-1.034-2.67 0-1.053.344-1.944 1.034-2.67.69-.728 1.548-1.093 2.574-1.093 1.02 0 1.877.366 2.57 1.097.693.73 1.04 1.619 1.04 2.665 0 1.053-.346 1.943-1.035 2.67zm-4.483-.603c.52.54 1.156.809 1.908.809.753 0 1.39-.27 1.908-.81.52-.54.78-1.228.78-2.066 0-.837-.26-1.526-.78-2.066a2.542 2.542 0 00-1.908-.809c-.752 0-1.388.27-1.908.809-.518.54-.779 1.229-.779 2.066 0 .838.261 1.527.78 2.067zM88.45 15.6V8.4h1.099L92.96 14h.04l-.04-1.386V8.4h.903v7.2h-.942L89.35 9.727h-.039l.039 1.388V15.6h-.9z" stroke="#000" stroke-width=".24" stroke-miterlimit="10"/><path d="M24.57 22.963L12.11 36.187l.002.007a3.364 3.364 0 004.957 2.03l.04-.023 14.024-8.093-6.564-7.145z" fill="#EA4335"/><path d="M37.174 20.712l-.012-.009-6.054-3.51-6.82 6.07 6.844 6.844 6.022-3.475a3.367 3.367 0 00.02-5.92z" fill="#FBBC04"/><path d="M12.111 11.09a3.298 3.298 0 00-.114.866v23.366c0 .3.039.59.115.865l12.887-12.885L12.111 11.09z" fill="#4285F4"/><path d="M24.662 23.639l6.449-6.447-14.008-8.121a3.373 3.373 0 00-4.991 2.015v.004l12.55 12.549z" fill="#34A853"/><rect x=".6" y=".6" width="156.8" height="46.8" rx="5.4" stroke="#767680" stroke-width="1.2"/></svg>