<svg width="176" height="52" fill="none" xmlns="http://www.w3.org/2000/svg"><path d="M168.87 51.147H6.495C2.925 51.147 0 48.29 0 44.805V6.757C0 3.271 2.924.416 6.495.416H168.87c3.571 0 6.495 2.855 6.495 6.341v38.048c0 3.486-2.924 6.342-6.495 6.342z" fill="#000"/><path d="M168.87 1.432c3.007 0 5.454 2.389 5.454 5.325v38.048c0 2.936-2.447 5.325-5.454 5.325H6.495c-3.007 0-5.454-2.389-5.454-5.325V6.757c0-2.936 2.447-5.325 5.454-5.325H168.87zm0-1.016H6.495C2.925.416 0 3.27 0 6.757v38.048c0 3.486 2.924 6.342 6.495 6.342H168.87c3.571 0 6.495-2.856 6.495-6.342V6.757c0-3.486-2.924-6.341-6.495-6.341z" fill="#A6A6A6"/><path d="M61.595 13.408c0 1.059-.325 1.907-.964 2.54-.736.75-1.694 1.126-2.868 1.126-1.122 0-2.08-.383-2.866-1.14-.787-.767-1.18-1.708-1.18-2.836 0-1.127.393-2.068 1.18-2.83.786-.762 1.744-1.146 2.866-1.146.559 0 1.091.113 1.6.322.506.211.919.496 1.217.848l-.678.67c-.522-.601-1.231-.898-2.139-.898-.818 0-1.528.28-2.13.842-.596.564-.895 1.295-.895 2.192 0 .898.299 1.635.895 2.2a3.042 3.042 0 002.13.841c.869 0 1.6-.285 2.176-.848.38-.373.596-.886.653-1.543h-2.829v-.916h3.774c.045.198.058.39.058.576zM67.582 10.23h-3.544v2.41h3.195v.916h-3.195v2.41h3.544v.934h-4.548V9.297h4.548v.933zM71.808 16.9h-1.004v-6.67H68.63v-.933h5.353v.933h-2.175v6.67zM77.857 16.9V9.297h1.002V16.9h-1.002zM83.3 16.9h-.996v-6.67h-2.182v-.933h5.36v.933H83.3v6.67zM95.618 15.922c-.768.769-1.72 1.152-2.854 1.152-1.142 0-2.093-.383-2.861-1.152-.767-.767-1.148-1.71-1.148-2.824 0-1.114.382-2.056 1.148-2.823.768-.769 1.72-1.153 2.86-1.153 1.13 0 2.081.384 2.849 1.16.773.773 1.154 1.708 1.154 2.816 0 1.115-.381 2.057-1.148 2.824zm-4.973-.637c.578.569 1.281.854 2.119.854.831 0 1.54-.285 2.112-.854.577-.57.87-1.3.87-2.187 0-.886-.293-1.617-.87-2.186-.571-.569-1.28-.854-2.112-.854-.838 0-1.541.285-2.12.854-.576.57-.868 1.3-.868 2.186 0 .887.293 1.617.869 2.187zM98.173 16.9V9.297h1.218l3.786 5.913h.044l-.044-1.462V9.297h1.002V16.9h-1.046l-3.965-6.205h-.044l.044 1.468V16.9h-.995z" fill="#fff" stroke="#fff" stroke-width=".138" stroke-miterlimit="10"/><path d="M88.508 28.004c-3.051 0-5.544 2.267-5.544 5.395 0 3.102 2.493 5.393 5.544 5.393 3.057 0 5.55-2.29 5.55-5.393 0-3.128-2.493-5.395-5.55-5.395zm0 8.664c-1.674 0-3.114-1.35-3.114-3.27 0-1.945 1.44-3.27 3.114-3.27s3.12 1.325 3.12 3.27c0 1.92-1.446 3.27-3.12 3.27zm-12.095-8.664c-3.058 0-5.544 2.267-5.544 5.395 0 3.102 2.486 5.393 5.544 5.393 3.056 0 5.543-2.29 5.543-5.393 0-3.128-2.487-5.395-5.543-5.395zm0 8.664c-1.676 0-3.121-1.35-3.121-3.27 0-1.945 1.445-3.27 3.12-3.27s3.115 1.325 3.115 3.27c0 1.92-1.44 3.27-3.114 3.27zm-14.393-7.01v2.292h5.606c-.163 1.28-.602 2.222-1.274 2.879-.819.792-2.093 1.672-4.332 1.672-3.45 0-6.153-2.719-6.153-6.087 0-3.37 2.702-6.088 6.153-6.088 1.865 0 3.223.712 4.225 1.634l1.654-1.615c-1.401-1.306-3.265-2.31-5.88-2.31-4.73 0-8.707 3.759-8.707 8.378 0 4.62 3.976 8.379 8.708 8.379 2.557 0 4.478-.818 5.988-2.353 1.547-1.51 2.03-3.635 2.03-5.35a7.49 7.49 0 00-.127-1.432H62.02zm58.854 1.776c-.456-1.206-1.864-3.43-4.732-3.43-2.841 0-5.207 2.186-5.207 5.395 0 3.021 2.342 5.393 5.48 5.393a5.507 5.507 0 004.605-2.39l-1.883-1.226c-.629.897-1.484 1.492-2.722 1.492-1.229 0-2.111-.55-2.676-1.635l7.39-2.985-.255-.614zm-7.534 1.797a2.992 2.992 0 012.885-3.146c.965 0 1.783.471 2.056 1.145l-4.941 2zm-6.006 5.233h2.429V22.61h-2.429v15.854zm-3.979-9.259h-.081c-.545-.63-1.586-1.201-2.905-1.201-2.766 0-5.296 2.371-5.296 5.412 0 3.023 2.53 5.376 5.296 5.376 1.319 0 2.36-.575 2.905-1.226h.081v.774c0 2.063-1.128 3.17-2.948 3.17-1.484 0-2.405-1.045-2.785-1.925l-2.112.86c.608 1.43 2.22 3.19 4.897 3.19 2.848 0 5.251-1.636 5.251-5.617v-9.686h-2.303v.873zm-2.778 7.463c-1.674 0-3.075-1.368-3.075-3.252 0-1.9 1.401-3.288 3.075-3.288 1.65 0 2.951 1.387 2.951 3.288 0 1.884-1.301 3.252-2.951 3.252zm31.67-14.058h-5.81v15.854h2.423v-6.007h3.387c2.69 0 5.329-1.9 5.329-4.924 0-3.022-2.645-4.923-5.329-4.923zm.063 7.642h-3.45v-5.436h3.45a2.784 2.784 0 012.842 2.717c0 1.227-1.033 2.719-2.842 2.719zm14.976-2.278c-1.75 0-3.571.754-4.319 2.427l2.15.88c.462-.88 1.313-1.166 2.213-1.166 1.257 0 2.531.738 2.551 2.04v.166c-.439-.248-1.377-.614-2.532-.614-2.315 0-4.674 1.245-4.674 3.567 0 2.124 1.896 3.493 4.028 3.493 1.63 0 2.53-.719 3.095-1.554h.083v1.225h2.34v-6.08c0-2.812-2.15-4.384-4.935-4.384zm-.292 8.687c-.793 0-1.897-.383-1.897-1.343 0-1.227 1.377-1.697 2.569-1.697 1.067 0 1.567.23 2.215.532-.19 1.468-1.484 2.508-2.887 2.508zm13.751-8.34l-2.784 6.872h-.083l-2.879-6.872h-2.613l4.326 9.604-2.468 5.344h2.531l6.666-14.948h-2.696zm-21.838 10.143h2.43V22.61h-2.43v15.854z" fill="#fff"/><path d="M13.556 9.977c-.382.39-.603.997-.603 1.783v28.048c0 .786.221 1.394.603 1.784l.094.085 16.098-15.71v-.371L13.65 9.885l-.095.092z" fill="url(#prefix__paint0_linear_801_8609)"/><path d="M35.107 31.206l-5.36-5.24v-.37l5.367-5.24.12.068 6.355 3.53c1.814 1.003 1.814 2.651 0 3.66l-6.355 3.524-.127.068z" fill="url(#prefix__paint1_linear_801_8609)"/><path d="M35.234 31.138l-5.486-5.357-16.192 15.81c.602.619 1.584.694 2.702.075l18.976-10.528z" fill="url(#prefix__paint2_linear_801_8609)"/><path d="M35.234 20.424L16.258 9.896c-1.118-.612-2.1-.537-2.702.08l16.192 15.805 5.486-5.357z" fill="url(#prefix__paint3_linear_801_8609)"/><defs><linearGradient id="prefix__paint0_linear_801_8609" x1="28.318" y1="40.1" x2="7.04" y2="18.306" gradientUnits="userSpaceOnUse"><stop stop-color="#00A0FF"/><stop offset=".007" stop-color="#00A1FF"/><stop offset=".26" stop-color="#00BEFF"/><stop offset=".512" stop-color="#00D2FF"/><stop offset=".76" stop-color="#00DFFF"/><stop offset="1" stop-color="#00E3FF"/></linearGradient><linearGradient id="prefix__paint1_linear_801_8609" x1="43.951" y1="25.779" x2="12.519" y2="25.779" gradientUnits="userSpaceOnUse"><stop stop-color="#FFE000"/><stop offset=".409" stop-color="#FFBD00"/><stop offset=".775" stop-color="orange"/><stop offset="1" stop-color="#FF9C00"/></linearGradient><linearGradient id="prefix__paint2_linear_801_8609" x1="32.251" y1="22.869" x2="3.396" y2="-6.685" gradientUnits="userSpaceOnUse"><stop stop-color="#FF3A44"/><stop offset="1" stop-color="#C31162"/></linearGradient><linearGradient id="prefix__paint3_linear_801_8609" x1="9.48" y1="50.923" x2="22.365" y2="37.726" gradientUnits="userSpaceOnUse"><stop stop-color="#32A071"/><stop offset=".069" stop-color="#2DA771"/><stop offset=".476" stop-color="#15CF74"/><stop offset=".801" stop-color="#06E775"/><stop offset="1" stop-color="#00F076"/></linearGradient></defs></svg>