<svg width="140" height="163" fill="none" xmlns="http://www.w3.org/2000/svg"><path d="M72.386 1.281a7.993 7.993 0 00-7.41 2.985 5.161 5.161 0 00-5.265 1.969 5.192 5.192 0 00-.367 5.62 5.749 5.749 0 00-2.407 4.44 5.765 5.765 0 002.018 4.63L78.592 6.339a8.029 8.029 0 00-2.428-3.36 8.001 8.001 0 00-3.778-1.697z" fill="#191C1E"/><path d="M58.809 21.86a20.092 20.092 0 017.03-12.816 20.002 20.002 0 0113.838-4.637l1.033.051c11.142 1.208 16.346 11.373 14.828 22.503l-3.47 37.225-.184 1.809-26.047 3.9.51-9.513s-10.663-2.206-10.262-12.984c.192-5.204 1.46-15.886 2.724-25.539z" fill="#C6846E" fill-opacity=".92"/><path d="M66.258 60.363a26.06 26.06 0 0014.28-3.426s-3.693 7.581-14.363 6.079l.083-2.653z" fill="#6F4439" fill-opacity=".81"/><path d="M61.672 31.806a1.543 1.543 0 001.397 1.63 1.469 1.469 0 001.469-.73c.096-.169.158-.355.183-.548a1.53 1.53 0 00-1.397-1.681 1.463 1.463 0 00-1.485.765c-.093.175-.15.367-.167.564zM60.855 27.242c.179.21 1.384-.595 3.036-.505 1.652.09 2.819.972 3.01.78.09-.083-.083-.454-.593-.87a4.196 4.196 0 00-2.398-.87 4.049 4.049 0 00-2.43.64c-.523.377-.714.735-.625.825zM77.036 33.033a1.536 1.536 0 001.396 1.624 1.466 1.466 0 001.091-.295 1.476 1.476 0 00.561-.983 1.549 1.549 0 00-1.403-1.63 1.462 1.462 0 00-1.466.735c-.096.17-.157.356-.18.55zM77.068 28.361c.178.211 1.384-.595 3.035-.505 1.652.09 2.82.972 3.01.78.09-.09-.082-.46-.592-.87a4.26 4.26 0 00-2.398-.875 4.05 4.05 0 00-2.43.639c-.491.39-.715.735-.625.831zM70.467 40.334c0-.096-1.002-.326-2.653-.64-.421-.063-.817-.165-.874-.46-.013-.438.107-.87.344-1.24l1.403-3.151c1.958-4.475 3.4-8.202 3.221-8.31-.178-.11-1.913 3.502-3.878 7.996l-1.352 3.197a2.44 2.44 0 00-.319 1.7 1.069 1.069 0 00.638.64c.229.077.467.122.708.134 1.716.166 2.749.224 2.762.134zM75.289 41.721c-.268 0-.364 1.765-1.958 2.967-1.595 1.201-3.495.9-3.52 1.15 0 .115.407.371 1.21.435a4.457 4.457 0 002.935-.863 3.92 3.92 0 001.53-2.493c.083-.748-.095-1.202-.197-1.196zM76.959 21.853c.14.46 1.805.326 3.724.639 1.92.313 3.47.94 3.744.55.128-.192-.127-.64-.733-1.094a6.369 6.369 0 00-2.743-1.118 6.204 6.204 0 00-2.946.204c-.727.269-1.104.601-1.046.819zM61.698 22.486c.274.39 1.428.057 2.8.108 1.37.051 2.512.378 2.8 0 .127-.185-.039-.569-.53-.946a3.82 3.82 0 00-2.239-.76 3.884 3.884 0 00-2.27.639c-.498.39-.676.767-.561.959z" fill="#191C1E"/><path d="M60.084 16.975s3.188-6.603 6.492-8.016c4.018-1.707 5.498 2.697 9.292 1.835 3.795-.864 7.654-2.506 11.315.588 4.03 3.381 1.957 5.51 1.977 10.298.089 19.421 3.348 25.079 4.802 15.982.16-.99 2.966-1.65 3.584-5.85.804-5.452 1.346-12.088.32-16.039-.868-3.324-2.616-5.683-5.836-8.342-5.103-4.2-12.316-4.648-17.265-4.392-4.949.256-14.707 5.472-14.681 13.936z" fill="#191C1E"/><path d="M93.293 37.355a2.932 2.932 0 012.116-2.573c.38-.107.777-.137 1.168-.086 1.997.294 4.172 1.54 3.827 5.683-.6 7.352-7.838 5.236-7.832 5.018.007-.217.44-4.967.721-8.042z" fill="#C6846E" fill-opacity=".92"/><path d="M94.421 42.764c.038 0 .121.102.332.217.291.156.632.193.95.102.797-.224 1.55-1.4 1.697-2.723a4.348 4.348 0 00-.21-1.867 1.484 1.484 0 00-.881-1.061.637.637 0 00-.784.294c-.115.198-.077.345-.115.358-.039.013-.153-.14-.064-.435a.792.792 0 01.325-.44.967.967 0 01.72-.129 1.785 1.785 0 011.238 1.279c.264.66.36 1.377.28 2.084-.171 1.483-1.039 2.806-2.123 3.024a1.362 1.362 0 01-1.154-.288c-.21-.236-.262-.403-.21-.416z" fill="#6F4439" fill-opacity=".81"/><path d="M96.06 24.915a7.49 7.49 0 01-3.43 1.38c-1.276.065-2.628-.722-2.775-1.962-.07-.556.096-1.189-.242-1.636-.338-.448-1.218-.41-1.913-.371a5.094 5.094 0 01-3.24-1.045 5.115 5.115 0 01-1.862-2.855c-.638.857-1.997.748-2.858.128-.86-.62-1.384-1.585-2.04-2.416-.657-.831-1.601-1.598-2.654-1.503-.587.058-1.154.378-1.74.295-1.034-.141-1.48-1.388-1.589-2.43-.108-1.042-.172-2.256-1.02-2.864-.849-.607-1.863-.313-2.832-.217-.97.096-2.188-.192-2.385-1.144a1.923 1.923 0 01.427-1.426A5.123 5.123 0 0172.1 5.206a7.146 7.146 0 012.409-3.24A7.12 7.12 0 0178.286.551C81.01.4 83.548-.38 84.734 2.087c1.748-1.439 4.42.447 6.601 1.06a7.19 7.19 0 014.758 4.476 5.09 5.09 0 015.279 2.067 5.122 5.122 0 01.116 5.68c1.384.883 2.551 2.366 2.481 4.009-.07 1.643-1.728 3.196-3.291 2.691a2.848 2.848 0 01-1.366 3.562 2.832 2.832 0 01-3.672-1.005" fill="#191C1E"/><path d="M115.749 128.286l21.684-4.692s-2.972-16.353-6.671-32.936c-2.953-13.226-17.532-16.896-17.532-16.896l-16.895-7.486-2.277-8.79C84.772 62.09 75.76 66.52 70.326 68.738l-4.974-5.511-2.111 6.617-1.78.185s-7.353 2.237-8.093 2.295c-6.728.537-15.504 8.087-18.789 15.982-1.358 3.266-6.62 22.803-10.472 43.029-2.793 14.633-4.407 28.838-5.102 30.762l21.684.045 5-30.807 1.467 30.979 73.81-.23-5.249-31.132.032-2.666z" fill="#BAC3FF"/><path d="M42.455 94.935c-.063 0 .549 8.157 1.371 18.206.823 10.049 1.544 18.194 1.614 18.187.07-.006-.548-8.157-1.371-18.206s-1.544-18.194-1.614-18.187z" fill="#191C1E"/><path d="M96.335 66.55L74.389 77.598l-4.088-8.95s7.347-3.196 14.03-6.737c6.819-3.644 9.472-4.418 9.472-4.418M65.116 63.233l4.975 5.505-4.484 8.016-2.602-6.904" fill="#767680"/><path d="M117.949 76.824c.038.044-.689.639-1.716 1.668a20.857 20.857 0 00-5.363 10.011c-.313 1.439-.389 2.353-.447 2.353a2.282 2.282 0 010-.64c.032-.587.102-1.172.211-1.751a18.676 18.676 0 015.434-10.133c.42-.41.868-.793 1.339-1.144.16-.15.343-.273.542-.364zM70.326 68.648c.045 0-.484.844-1.275 2.186-.79 1.343-1.862 3.235-2.876 5.396-.083.179-.16.358-.236.517l-.16.346-.16-.34a43.167 43.167 0 01-2.13-5.363 31.477 31.477 0 01-.471-1.662 1.978 1.978 0 01-.109-.639c.045 0 .319.838.81 2.212a58.093 58.093 0 002.2 5.287h-.312l.236-.524a44.682 44.682 0 012.985-5.377c.427-.64.797-1.182 1.058-1.534.124-.188.272-.357.44-.505z" fill="#191C1E"/><path d="M94.422 67.555a1.91 1.91 0 00-.306.127l-.848.403-3.093 1.515-10.205 5.083-5.6 2.825.154.058-2.985-6.431c-.364-.767-.638-1.381-.874-1.829l-.236-.486a.746.746 0 00-.096-.16.588.588 0 00.064.18l.204.492.817 1.86c.72 1.605 1.728 3.836 2.902 6.463l.05.102.103-.05 5.606-2.807 10.147-5.146 3.061-1.586.83-.44c.108-.045.21-.103.305-.173z" fill="#191C1E"/><path d="M135.061 112.368s4.502 21.805 4.866 26.849c.72 9.877-4.005 15.797-8.463 18.603-4.631 2.909-30.76 4.283-30.76 4.283l-1.582-15.662 16.984-10.312-2.302-17.848 21.257-5.913z" fill="#BAC3FF"/><path d="M116.011 135.528a3.305 3.305 0 00-.032-.358c-.039-.256-.083-.595-.147-1.023-.134-.914-.325-2.193-.561-3.759-.504-3.196-1.186-7.569-1.945-12.395-1.493-9.442-2.551-16.244-2.768-17.523a1.946 1.946 0 000 .358c0 .243.057.588.108 1.029.109.895.287 2.18.517 3.772a733.114 733.114 0 001.913 12.402c.784 4.839 1.48 9.218 2.015 12.383.262 1.56.485 2.838.638 3.746.077.422.14.761.185 1.016.015.12.04.237.077.352zM132.867 156.912a.783.783 0 00-.134.103 1.916 1.916 0 01-.383.287 7.804 7.804 0 01-1.69.787 41.313 41.313 0 01-6.729 1.598 200.6 200.6 0 01-23.234 2.276l.128.102c-.16-1.541-.319-3.197-.491-4.82-.383-3.798-.753-7.461-1.097-10.836l-.057.109 16.46-9.967 4.752-2.902 1.275-.786.319-.205.109-.076s-.039 0-.115.057l-.338.192-1.276.748-4.789 2.851-16.5 9.89-.063.038v.07c.338 3.382.708 7.032 1.09 10.868.166 1.649.332 3.279.491 4.82v.115h.109a191.589 191.589 0 0023.247-2.352 40.11 40.11 0 006.734-1.675 7.455 7.455 0 001.684-.831c.137-.089.263-.191.377-.307.045-.047.085-.099.121-.154z" fill="#191C1E"/><path d="M127.586 129.666a1.038 1.038 0 00-.637-.377c-1.276-.288-2.552.172-3.712.709a25.24 25.24 0 00-8.987 7.237l.294-.166c3.98-2.359 7.5-4.75 11.767-5.888a2.62 2.62 0 001.065-.46.848.848 0 00.21-1.055z" fill="#191C1E" opacity=".3"/><path d="M99.359 147.393l-2.2.205s-.288-3.197-.785-4.437c-.498-1.24-1.429-5.076-1.429-5.076s-9.84-4.148-10.058-4.148c-.216 0-9.84 2.659-9.84 2.659s.216 2.64 3.495 2.787c1.962.087 3.928-.08 5.848-.499l3.068 1.145-6.136.39-10.765 6.469s.07 1.918 4.28.927c4.208-.991 6.377-2.787 6.377-2.787l7.915 1.157-8.374.396-6.276 3.146s.051 2.608 2.621 1.962a178.5 178.5 0 014.292-1.029l7.488.889-6.346.351s-4.28.115-4.063 1.279c.217 1.163 3.355 2.141 3.355 2.141l4.465.793s.165 2.001.95 2.64c.784.639 1.996 1.541 2.71 1.554.715.012 10.766.549 10.766.549l-1.358-13.463z" fill="#C6846E" fill-opacity=".92"/><path d="M93.874 157.161a2.01 2.01 0 00.382-.249c.324-.255.62-.542.887-.857a7.118 7.118 0 001.613-3.721 6.908 6.908 0 00-.102-2.256c-.147-.678-.382-1.279-.453-1.758a2.365 2.365 0 01.096-1.183 4.44 4.44 0 01.191-.403.881.881 0 00-.267.371c-.171.387-.229.815-.166 1.234.05.531.274 1.119.408 1.784.141.72.17 1.457.083 2.186a7.371 7.371 0 01-1.518 3.65c-.358.426-.744.827-1.154 1.202zM92.66 156.413a25.492 25.492 0 00-3.277-.224 25.982 25.982 0 00-3.278 0c1.084.146 2.177.221 3.271.224 1.094.069 2.191.069 3.285 0zM92.176 151.664a7.1 7.1 0 00-1.741-.077 7.262 7.262 0 00-1.735.128 6.859 6.859 0 001.735.083 7.214 7.214 0 001.741-.134zM92.508 140.636c0-.064-1.09.122-2.423 0-1.334-.121-2.36-.518-2.38-.454.73.384 1.537.603 2.36.639a5.717 5.717 0 002.443-.185z" fill="#6F4439" fill-opacity=".81"/><path d="M.031 115.704l9.426 46.386h81.827a1.645 1.645 0 001.639-1.637 1.637 1.637 0 00-1.639-1.643H74.816l-8.743-43.138a1.785 1.785 0 00-1.729-1.432l-62.534-.658a1.783 1.783 0 00-1.752 1.336 1.795 1.795 0 00-.027.786z" fill="#767680"/><path d="M.03 115.704a1.098 1.098 0 010-.14 1.41 1.41 0 010-.422 1.811 1.811 0 01.868-1.355c.168-.1.351-.171.542-.211.21-.041.425-.056.638-.045h1.473l3.68.032 23.643.224 16.48.166 9.235.096 4.847.051h3.112c.221.025.437.088.638.185.4.2.72.535.9.946.077.207.135.421.171.64l.128.639.255 1.278c.166.838.338 1.682.51 2.557.345 1.705.693 3.425 1.046 5.159.71 3.482 1.433 7.043 2.169 10.683 1.48 7.268 3.01 14.837 4.592 22.63l-.109-.09h16.193c.214-.012.428.001.638.039.436.092.82.348 1.071.716a1.746 1.746 0 01.276 1.414 1.753 1.753 0 01-.875 1.143 1.794 1.794 0 01-.772.204H9.381v-.07a35313.523 35313.523 0 00-6.85-33.881l-1.862-9.347c-.21-1.054-.37-1.866-.479-2.416-.108-.55-.153-.825-.153-.825s.064.275.179.819c.115.543.28 1.355.504 2.416.433 2.122 1.078 5.242 1.913 9.257 1.645 8.035 4.012 19.625 6.926 33.881l-.083-.07h81.871c.235-.01.464-.074.67-.185a1.521 1.521 0 00.744-1.631 1.525 1.525 0 00-.253-.581 1.554 1.554 0 00-.931-.64 3.018 3.018 0 00-.593-.032H74.72v-.089c-1.582-7.793-3.113-15.343-4.586-22.63l-2.156-10.683a923.45 923.45 0 00-1.046-5.165c-.172-.85-.344-1.694-.51-2.557-.083-.416-.172-.838-.255-1.279l-.128-.639a2.406 2.406 0 00-.159-.588 1.683 1.683 0 00-1.365-1.01h-.638l-2.474-.032-4.84-.058-9.236-.102-16.48-.198-23.642-.288-3.686-.051H2.053a2.962 2.962 0 00-.638.039 1.757 1.757 0 00-1.39 1.527 1.96 1.96 0 00.006.569z" fill="#191C1E"/><path d="M37.743 136.935a2.717 2.717 0 01-1.67 2.504 2.696 2.696 0 01-2.947-.588 2.712 2.712 0 011.913-4.627 2.688 2.688 0 011.914.792 2.707 2.707 0 01.79 1.919z" fill="#fff"/><path d="M.12 116.082H4.406l11.703.057 38.592.275 5.58.045h1.372c.234-.007.47.008.701.044.227.052.442.143.638.269.409.259.705.663.829 1.131.102.454.178.883.274 1.324.689 3.49 1.359 6.866 1.99 10.075 1.276 6.392 2.41 12.203 3.368 17.062.956 4.858 1.715 8.784 2.244 11.507l.638 3.132.147.812c.032.173.044.281.044.281s0-.095-.063-.274c-.064-.179-.102-.461-.172-.812-.153-.723-.37-1.771-.638-3.12-.549-2.723-1.34-6.648-2.322-11.507-.982-4.858-2.124-10.637-3.412-17.056-.638-3.196-1.275-6.578-2.009-10.068-.083-.435-.166-.889-.261-1.279a1.688 1.688 0 00-.74-.997 1.624 1.624 0 00-.587-.237 2.781 2.781 0 00-.638-.038h-1.37l-5.581-.045-38.598-.339-11.697-.127-3.189-.045H.426l-.306-.07z" fill="#191C1E"/></svg>