<svg width="180" height="181" viewBox="0 0 180 181" fill="none" xmlns="http://www.w3.org/2000/svg">
<g opacity="0.9" clip-path="url(#clip0_1112_26877)">
<mask id="mask0_1112_26877" style="mask-type:luminance" maskUnits="userSpaceOnUse" x="-23" y="-49" width="224" height="224">
<path d="M201 -49H-23V175H201V-49Z" fill="white"/>
</mask>
<g mask="url(#mask0_1112_26877)">
<mask id="mask1_1112_26877" style="mask-type:luminance" maskUnits="userSpaceOnUse" x="-32" y="-49" width="243" height="243">
<path d="M-31.7529 -48.6802H210.167V193.24H-31.7529V-48.6802Z" fill="white"/>
</mask>
<g mask="url(#mask1_1112_26877)">
<path d="M39.6165 82.4758L40.6544 83.6059C40.8624 83.8324 41.1931 83.8979 41.4717 83.7679L42.8622 83.1191L41.7321 84.1571C41.5057 84.365 41.4401 84.6958 41.5701 84.9743L42.2189 86.3648L41.181 85.2347C40.9731 85.0083 40.6423 84.9427 40.3637 85.0727L38.9732 85.7215L40.1033 84.6836C40.3298 84.4757 40.3953 84.1449 40.2653 83.8663L39.6165 82.4758Z" fill="#353D69"/>
<path d="M31.1736 97.099L32.1474 98.1594C32.3426 98.3719 32.6528 98.4334 32.9143 98.3114L34.2188 97.7027L33.1585 98.6764C32.946 98.8716 32.8846 99.1818 33.0065 99.4433L33.6154 100.748L32.6414 99.6876C32.4462 99.4751 32.1361 99.4136 31.8747 99.5356L30.5701 100.144L31.6304 99.1705C31.8429 98.9754 31.9043 98.6652 31.7823 98.4038L31.1736 97.099Z" fill="#353D69"/>
<path d="M25.3208 72.3937L26.0469 73.1845C26.1925 73.3429 26.4239 73.3889 26.6189 73.298L27.5917 72.844L26.801 73.5701C26.6426 73.7157 26.5968 73.9471 26.6878 74.1421L27.1417 75.115L26.4154 74.3243C26.2699 74.1659 26.0385 74.1199 25.8435 74.2109L24.8708 74.6648L25.6614 73.9387C25.8198 73.7931 25.8656 73.5617 25.7746 73.3667L25.3208 72.3937Z" fill="#353D69"/>
<path d="M163.442 80.7062L162.775 79.2776C162.642 78.9914 162.709 78.6517 162.942 78.4381L164.103 77.3716L162.674 78.0381C162.388 78.1717 162.048 78.1045 161.835 77.8718L160.768 76.7107L161.435 78.1394C161.568 78.4256 161.501 78.7652 161.269 78.9788L160.108 80.0453L161.536 79.3788C161.822 79.2452 162.162 79.3125 162.376 79.5452L163.442 80.7062Z" fill="#353D69"/>
<path d="M149.547 95.1261L148.922 93.7858C148.797 93.5173 148.86 93.1983 149.078 92.9979L150.167 91.9975L148.827 92.6229C148.559 92.7482 148.24 92.685 148.039 92.4667L147.039 91.3774L147.664 92.7178C147.789 92.9863 147.726 93.3052 147.508 93.5056L146.419 94.506L147.759 93.8806C148.027 93.7553 148.346 93.8186 148.547 94.0368L149.547 95.1261Z" fill="#353D69"/>
<path d="M153.246 67.7946L152.78 66.7951C152.687 66.5948 152.734 66.357 152.896 66.2076L153.709 65.4615L152.709 65.9279C152.509 66.0214 152.271 65.9743 152.122 65.8114L151.376 64.9991L151.842 65.9986C151.936 66.1989 151.888 66.4367 151.726 66.5862L150.913 67.3322L151.913 66.8658C152.113 66.7723 152.351 66.8195 152.5 66.9823L153.246 67.7946Z" fill="#353D69"/>
<path d="M49.0289 21.748L49.842 22.6333C50.0048 22.8107 50.2641 22.8621 50.4823 22.7602L51.5715 22.2521L50.6863 23.0651C50.509 23.2279 50.4576 23.4872 50.5594 23.7054L51.0676 24.7947L50.2545 23.9094C50.0917 23.7321 49.8324 23.6807 49.6142 23.7825L48.5251 24.2906L49.4102 23.4776C49.5876 23.3148 49.639 23.0555 49.5371 22.8373L49.0289 21.748Z" fill="#353D69"/>
<path d="M36.6121 35.5589L37.456 36.4777C37.6251 36.6617 37.8939 36.715 38.1204 36.6094L39.251 36.0819L38.3322 36.9259C38.1482 37.095 38.0949 37.3638 38.2005 37.5903L38.728 38.7209L37.884 37.8021C37.7149 37.6181 37.4461 37.5648 37.2196 37.6704L36.089 38.1978L37.0078 37.3539C37.1918 37.1848 37.2451 36.916 37.1395 36.6895L36.6121 35.5589Z" fill="#353D69"/>
<path d="M124.9 14.1629L124.392 13.0736C124.29 12.8554 124.341 12.5961 124.519 12.4333L125.404 11.6203L124.315 12.1284C124.097 12.2302 123.837 12.1788 123.675 12.0015L122.861 11.1162L123.37 12.2055C123.471 12.4236 123.42 12.683 123.243 12.8458L122.358 13.6588L123.447 13.1507C123.665 13.0488 123.924 13.1002 124.087 13.2776L124.9 14.1629Z" fill="#353D69"/>
</g>
<path d="M41.791 134.869L51.4993 141.773C48.0955 139.714 44.8537 137.404 41.791 134.869Z" fill="#00115A"/>
<path d="M142.901 134.869C139.84 137.404 136.596 139.712 133.192 141.773L142.901 134.869Z" fill="#00115A"/>
<path d="M22.8211 143.601C25.8693 143.118 28.9172 143.003 31.9654 142.944C33.4895 142.911 35.0134 142.905 36.5375 142.913C38.0616 142.911 39.5857 142.933 41.1097 142.949C44.1579 142.977 47.2059 142.984 50.2541 142.98H59.3984H95.9755H132.553H150.842L155.414 142.978L157.7 142.956L159.986 142.917C163.034 142.906 166.082 142.934 169.13 143.601C169.302 143.639 169.41 143.808 169.373 143.98C169.345 144.105 169.248 144.197 169.13 144.223C166.082 144.89 163.034 144.918 159.986 144.907L157.7 144.868L155.414 144.846L150.842 144.844H132.553H95.9755H59.3984H50.2541C47.2059 144.839 44.1579 144.847 41.1097 144.875C39.5857 144.891 38.0616 144.913 36.5375 144.911C35.0134 144.919 33.4895 144.913 31.9654 144.88C28.9172 144.821 25.8693 144.705 22.8211 144.223C22.6496 144.195 22.5325 144.034 22.5596 143.863C22.5813 143.725 22.6902 143.622 22.8211 143.601Z" fill="#00115A"/>
<path d="M154.896 143.545H37.0552C35.1496 143.545 33.605 142.001 33.605 140.095V139.983C33.605 138.077 35.1496 136.533 37.0552 136.533H154.896C156.802 136.533 158.346 138.077 158.346 139.983V140.095C158.346 142.001 156.802 143.545 154.896 143.545Z" fill="#353D69"/>
<path d="M154.896 143.677H37.0553C35.0805 143.677 33.4736 142.07 33.4736 140.095V139.983C33.4736 138.008 35.0805 136.401 37.0553 136.401H154.896C156.871 136.401 158.478 138.008 158.478 139.983V140.095C158.478 142.07 156.871 143.677 154.896 143.677ZM37.0553 136.664C35.2251 136.664 33.7361 138.153 33.7361 139.983V140.095C33.7361 141.925 35.2251 143.414 37.0553 143.414H154.896C156.726 143.414 158.215 141.925 158.215 140.095V139.983C158.215 138.153 156.726 136.664 154.896 136.664H37.0553Z" fill="#00115A"/>
<path d="M154.896 144.456H37.0549C34.6507 144.456 32.6948 142.5 32.6948 140.096V139.984C32.6948 137.579 34.6507 135.624 37.0549 135.624H154.896C157.3 135.624 159.256 137.579 159.256 139.984V140.096C159.256 142.5 157.3 144.456 154.896 144.456ZM37.0549 137.444C35.654 137.444 34.5143 138.583 34.5143 139.984V140.096C34.5143 141.497 35.654 142.637 37.0549 142.637H154.896C156.297 142.637 157.436 141.497 157.436 140.096V139.984C157.436 138.583 156.297 137.444 154.896 137.444H37.0549Z" fill="#00115A"/>
<path d="M154.95 137.571H56.4625H48.2169H36.9986C35.6811 137.571 34.6094 138.678 34.6094 140.039C34.6094 141.036 35.1864 141.895 36.0125 142.284C35.7621 141.893 35.6153 141.427 35.6153 140.925C35.6153 139.564 36.687 138.457 38.0045 138.457H48.1085C48.6315 139.056 50.3257 139.496 52.3397 139.496C54.3537 139.496 56.0478 139.056 56.5709 138.457H155.956C156.307 138.457 156.641 138.538 156.942 138.68C156.514 138.013 155.781 137.571 154.95 137.571Z" fill="white"/>
<g style="mix-blend-mode:multiply">
<path d="M38.8801 143.546H154.949C156.824 143.546 158.344 141.977 158.344 140.04C158.344 138.104 156.824 136.534 154.949 136.534H108.215C106.368 137.575 92.5217 144.027 35.3633 142.354L38.8801 143.546Z" fill="#353D69"/>
</g>
<path d="M173.653 146.814C173.653 149.983 137.039 152.554 91.8756 152.554C46.7118 152.554 10.0977 149.983 10.0977 146.814C10.0977 145.924 12.993 145.078 18.1625 144.327H165.589C170.758 145.078 173.653 145.924 173.653 146.814Z" fill="#C6C5D0"/>
<path d="M133.193 141.774H51.499C63.849 141.544 77.706 141.416 92.3472 141.416C106.986 141.416 120.843 141.544 133.193 141.774Z" fill="#C6C5D0"/>
<path d="M135.892 100.905V127.947C135.892 129.206 135.567 130.407 134.981 131.486C133.379 134.456 129.83 136.533 125.733 136.533H65.1885C61.744 136.533 58.6869 135.067 56.8478 132.834C55.703 131.445 55.0298 129.761 55.0298 127.947V100.905C55.0298 99.2269 55.6089 97.6578 56.6071 96.3304C58.4077 93.9235 61.587 92.3188 65.1885 92.3188H125.733C126.222 92.3188 126.699 92.3484 127.171 92.4074C132.084 93.0003 135.892 96.5958 135.892 100.905Z" fill="white"/>
<path d="M125.734 137.443H65.1892C61.6056 137.443 58.225 135.937 56.1464 133.413C54.8212 131.805 54.1206 129.915 54.1206 127.947V100.906C54.1206 99.0865 54.729 97.3157 55.8806 95.7843C57.9292 93.0458 61.4097 91.4097 65.1892 91.4097H125.734C126.255 91.4097 126.777 91.4416 127.284 91.5052C132.709 92.1596 136.802 96.2011 136.802 100.906V127.947C136.802 129.336 136.459 130.673 135.781 131.921C133.972 135.275 130.028 137.443 125.734 137.443ZM65.1892 93.2294C61.9801 93.2294 59.0446 94.5926 57.3364 96.8761C56.4227 98.0913 55.9403 99.4842 55.9403 100.906V127.947C55.9403 129.487 56.4972 130.978 57.5508 132.256C59.2878 134.365 62.1434 135.624 65.1892 135.624H125.734C129.368 135.624 132.684 133.831 134.181 131.055C134.713 130.074 134.983 129.03 134.983 127.947V100.906C134.983 97.1209 131.577 93.856 127.062 93.3114C126.626 93.2567 126.18 93.2294 125.734 93.2294H65.1892Z" fill="#353D69"/>
<path d="M96.2304 84.8022C116.916 88.2225 136.209 100.789 143.514 120.092C149.418 135.693 138.695 136.533 138.695 136.533H95.8058H96.199H53.3094C53.3094 136.533 42.5866 135.693 48.4904 120.092C55.7957 100.789 75.0888 88.2225 95.7744 84.8022" fill="white"/>
<path d="M138.694 136.534H53.3085C53.3085 136.534 45.8071 135.945 46.8101 126.624C46.8241 126.736 46.8398 126.847 46.857 126.955C47.5787 131.519 53.7914 132.412 55.8659 128.283L56.804 126.416H135.137L136.143 128.382C138.238 132.48 144.386 131.567 145.137 127.025C145.159 126.894 145.178 126.76 145.195 126.624C146.198 135.945 138.694 136.534 138.694 136.534Z" fill="#E3E1EC"/>
<path d="M138.731 137.443L53.2383 137.441C53.0808 137.428 49.3584 137.099 47.2227 133.733C45.1995 130.544 45.3396 125.847 47.6393 119.77C54.5945 101.392 72.9819 87.6485 95.6258 83.9043C95.7553 83.8831 95.883 83.8901 96.0025 83.921C96.122 83.8901 96.2493 83.8831 96.3787 83.9043C119.023 87.6485 137.41 101.392 144.365 119.77C146.665 125.847 146.805 130.545 144.782 133.734C142.646 137.1 138.924 137.428 138.766 137.441L138.731 137.443ZM96.199 135.624H138.653C138.978 135.589 141.692 135.231 143.259 132.737C144.92 130.095 144.715 125.833 142.664 120.414C135.937 102.64 118.088 89.3383 96.0819 85.6999C96.0548 85.6953 96.0284 85.6897 96.0023 85.6829C95.9764 85.6895 95.9498 85.6953 95.9227 85.6999C73.9167 89.3383 56.0676 102.64 49.3412 120.414C47.2902 125.833 47.0846 130.095 48.7459 132.737C50.3096 135.225 53.0131 135.587 53.3527 135.624H96.199Z" fill="#353D69"/>
<path d="M129.007 66.6266C128.593 66.6962 128.201 66.4166 128.131 66.0022L124.505 44.3921C124.436 43.9777 124.715 43.5856 125.13 43.516C129.476 42.7867 133.592 45.7193 134.321 50.0661L135.557 57.4351C136.287 61.7819 133.354 65.8972 129.007 66.6266Z" fill="white"/>
<path d="M128.991 66.7943C128.504 66.8525 128.052 66.5174 127.97 66.0294L124.344 44.4195C124.26 43.917 124.6 43.4394 125.103 43.3551C129.534 42.6112 133.739 45.6103 134.482 50.0394L135.719 57.4086C136.079 59.5539 135.582 61.711 134.319 63.4827C133.057 65.2541 131.18 66.4281 129.035 66.7881C129.02 66.7906 129.006 66.7925 128.991 66.7943ZM125.525 43.6247C125.402 43.6393 125.28 43.657 125.157 43.6775C124.832 43.732 124.612 44.0405 124.667 44.3653L128.293 65.9754C128.347 66.3003 128.656 66.5179 128.981 66.4656C133.232 65.7524 136.11 61.7136 135.396 57.4625L134.16 50.0935C133.467 45.9655 129.639 43.132 125.525 43.6247Z" fill="#00115A"/>
<path d="M134.978 53.9801L135.559 57.4362C136.287 61.7816 133.355 65.8974 129.008 66.6285C128.593 66.6985 128.201 66.4168 128.131 66.0027L127.165 60.2582C127.326 60.5006 127.618 60.6374 127.923 60.5887L128.435 60.5013C131.87 59.9258 134.423 57.2332 134.978 53.9801Z" fill="#E3E1EC"/>
<path d="M129.079 67.5354C128.2 67.6406 127.381 67.0352 127.233 66.1529L123.607 44.543C123.455 43.6347 124.07 42.7716 124.978 42.619C129.81 41.808 134.406 45.0811 135.218 49.9159L136.454 57.2849C137.265 62.1197 133.992 66.7129 129.157 67.5243L129.157 67.5243C129.131 67.5286 129.105 67.5322 129.079 67.5354ZM125.427 44.3904L129.003 65.7034C132.767 64.9912 135.297 61.382 134.66 57.586L133.423 50.217C132.786 46.421 129.212 43.8329 125.427 44.3904Z" fill="#353D69"/>
<path d="M53.8002 55.4848C54.2146 55.4152 54.6067 55.6947 54.6763 56.1091L58.3023 77.7192C58.3719 78.1336 58.0924 78.5257 57.678 78.5953C53.3312 79.3247 49.2158 76.392 48.4865 72.0452L47.25 64.676C46.5207 60.3291 49.4534 56.2141 53.8002 55.4848Z" fill="white"/>
<path d="M57.3211 78.8116C53.0351 79.3248 49.0466 76.3729 48.325 72.0719L47.0885 64.7029C46.7286 62.5576 47.2256 60.4005 48.4882 58.6288C49.7506 56.8574 51.6272 55.6834 53.7728 55.3234C54.2774 55.2381 54.7528 55.5798 54.8373 56.0818L58.4632 77.692C58.5475 78.1945 58.2071 78.6721 57.7048 78.7564C57.5767 78.7778 57.4486 78.7963 57.3211 78.8116ZM53.8267 55.6456C49.5757 56.3588 46.6978 60.3979 47.411 64.649L48.6474 72.0179C49.3609 76.2687 53.3973 79.1445 57.6506 78.434C57.9754 78.3795 58.1952 78.0708 58.1408 77.7459L54.5148 56.1358C54.4601 55.811 54.1447 55.5888 53.8267 55.6456Z" fill="#00115A"/>
<path d="M57.2975 71.7245L58.3026 77.7195C58.3727 78.1336 58.0907 78.526 57.6766 78.5961C55.395 78.9779 53.1753 78.3527 51.4767 77.0411C49.9427 75.8567 48.8336 74.1108 48.487 72.0469L47.9658 68.9419C49.6568 71.459 52.7246 72.8959 55.9116 72.3617L56.7 72.229C56.9878 72.1802 57.206 71.9801 57.2975 71.7245Z" fill="#E3E1EC"/>
<path d="M57.4087 79.5529C52.7298 80.1132 48.3758 76.8907 47.588 72.1956L46.3516 64.8266C45.5404 59.9918 48.8137 55.3989 53.6485 54.5875C54.5582 54.4383 55.4199 55.0503 55.5725 55.9583L59.1985 77.5687C59.3509 78.477 58.7357 79.3401 57.8277 79.4927C57.6879 79.516 57.5478 79.5362 57.4087 79.5529ZM53.803 56.4083C50.0384 57.1205 47.5092 60.7297 48.1463 64.5257L49.3827 71.8947C50.0196 75.6907 53.5896 78.2759 57.379 77.7213L53.803 56.4083Z" fill="#353D69"/>
<path d="M128.578 57.5041C130.54 78.033 115.488 96.2651 94.9591 98.2263C74.4303 100.188 56.1982 85.1359 54.2369 64.607C52.2757 44.0782 67.3276 25.8461 87.8564 23.8848C108.385 21.9235 126.617 36.9753 128.578 57.5041Z" fill="white"/>
<path d="M95.8801 98.2915C95.5786 98.3276 95.2789 98.3599 94.9749 98.3889C74.3892 100.356 56.0415 85.2078 54.0747 64.6221C53.1218 54.6502 56.1096 44.9039 62.4871 37.1786C68.865 29.4536 77.8692 24.6778 87.8412 23.7217C97.8134 22.7687 107.559 25.7566 115.285 32.1342C123.01 38.512 127.789 47.5163 128.742 57.4885C130.679 77.7702 116.001 95.882 95.8801 98.2915ZM86.9646 24.1449C77.441 25.2853 68.8676 29.9638 62.7391 37.3868C56.4171 45.0444 53.4554 54.706 54.3999 64.5912C56.3496 84.9974 74.5377 100.013 94.944 98.0635C115.345 96.1151 130.365 77.9259 128.416 57.5194C127.472 47.6342 122.734 38.7084 115.077 32.3864C107.419 26.0641 97.7574 23.1027 87.8722 24.0472C87.5694 24.0761 87.2658 24.1088 86.9646 24.1449Z" fill="#00115A"/>
<path d="M127.729 52.3927C128.127 54.0509 128.41 55.757 128.578 57.5044C130.536 78.0329 115.486 96.2644 94.9574 98.2278C74.4289 100.186 56.1974 85.1353 54.234 64.6071C54.1772 64.0168 54.1346 63.4244 54.1072 62.84C58.3419 80.695 75.1987 93.1428 93.9819 91.3489C113.92 89.4424 128.688 72.1918 127.729 52.3927Z" fill="#E3E1EC"/>
<path d="M95.9689 99.0325C95.6612 99.0693 95.356 99.1025 95.0457 99.1318C74.0505 101.138 55.3376 85.6885 53.3314 64.693C51.3255 43.6978 66.763 24.9883 87.7702 22.9787C97.9409 22.0071 107.881 25.0541 115.76 31.5587C123.639 38.0633 128.513 47.2468 129.485 57.4175C131.461 78.1029 116.49 96.5751 95.9689 99.0325ZM87.0537 24.8858C77.7213 26.0033 69.3201 30.5878 63.3147 37.8619C57.1197 45.3659 54.2174 54.8335 55.143 64.5202C57.0536 84.5167 74.8762 99.231 94.8729 97.3205C114.865 95.4126 129.583 77.5871 127.673 57.5903C125.763 37.5936 107.94 22.8796 87.943 24.7903C87.6462 24.8185 87.3487 24.8505 87.0537 24.8858Z" fill="#353D69"/>
<path d="M128.55 58.4708C129.355 65.7333 127.744 72.7369 124.331 78.7622C121.771 83.2794 110.157 91.9758 94.8285 93.8141C80.6159 95.5184 66.831 89.3675 63.3449 85.5202C58.6948 80.3883 55.5904 73.9072 54.7856 66.6447C52.656 47.4261 68.285 37.6291 88.6554 35.3718C109.026 33.1145 126.42 39.2522 128.55 58.4708Z" fill="#353D69"/>
<path d="M94.9304 94.7182C80.2265 96.4789 66.3236 90.1626 62.6705 86.131C57.7206 80.6681 54.6811 73.9646 53.8811 66.7446C52.8388 57.3386 55.8065 49.6684 62.7018 43.9474C68.7217 38.9527 77.6612 35.6691 88.5548 34.4677C99.4483 33.2607 108.889 34.5021 115.856 38.0576C123.837 42.1301 128.412 48.9643 129.454 58.3705C130.254 65.5903 128.756 72.7967 125.122 79.2108C122.603 83.6576 111.162 92.7718 94.9366 94.7174C94.9347 94.7176 94.9323 94.7179 94.9304 94.7182ZM88.0802 36.3538C77.8487 37.579 69.4859 40.6829 63.8636 45.3479C57.4692 50.6535 54.7189 57.785 55.6896 66.5444C56.4472 73.3813 59.3274 79.7316 64.019 84.9092C67.3504 88.586 80.8293 94.5743 94.7143 92.9116C94.7169 92.9112 94.7174 92.9112 94.72 92.9109C110.11 91.0653 121.251 82.3515 123.539 78.3137C126.983 72.2347 128.403 65.4077 127.646 58.5708C125.017 34.8503 99.5728 35.0775 88.7551 36.2762C88.5293 36.3013 88.3043 36.327 88.0802 36.3538Z" fill="#353D69"/>
<path d="M111.497 56.8581C111.245 60.4991 113.18 63.5981 115.818 63.7801C118.457 63.9622 120.799 61.1583 121.05 57.5173C121.302 53.8764 119.367 50.7774 116.728 50.5953C114.09 50.4132 111.748 53.2171 111.497 56.8581Z" fill="white"/>
<path d="M109.34 70.3073C108.995 71.9465 109.855 73.5154 111.262 73.8115C112.669 74.1077 114.089 73.0189 114.434 71.3797C114.779 69.7406 113.919 68.1717 112.512 67.8755C111.105 67.5793 109.685 68.6681 109.34 70.3073Z" fill="white"/>
<path d="M119.392 41.3358C124.377 45.1386 127.695 50.7502 128.551 58.469C129.356 65.733 127.744 72.7362 124.333 78.7615C121.773 83.2788 110.157 91.975 94.8294 93.8147C89.4174 94.4652 84.0688 93.9744 79.3247 92.904C98.1181 90.241 112.259 79.5804 115.433 73.9778C119.766 66.3305 121.809 57.4404 120.787 48.225C120.515 45.7618 120.041 43.4684 119.392 41.3358Z" fill="#353D69"/>
<path d="M123.616 42.8711C123.415 42.8951 123.205 42.8523 123.021 42.7343L122.917 42.6673L122.828 42.5712C115.596 34.488 102.946 30.7937 88.1216 32.4361C73.2258 34.0792 61.7099 40.6241 56.5574 50.3677L56.5192 50.4331C56.2483 50.8566 55.6835 50.9825 55.2604 50.7111C54.8495 50.4477 54.7196 49.9121 54.9609 49.4938C60.4053 39.2214 72.4286 32.3415 87.9211 30.6276C103.327 28.9209 116.537 32.8257 124.169 41.341C124.449 41.6378 124.505 42.0985 124.275 42.4571C124.122 42.696 123.877 42.8399 123.616 42.8711Z" fill="#353D69"/>
<path d="M64.3368 77.1587C64.3368 77.1587 56.2836 58.859 65.6641 50.1717C75.0446 41.4843 89.7484 39.8858 89.5092 40.8666C89.5092 40.8666 73.6715 46.6101 68.7294 60.1816C64.9183 70.6468 64.3368 77.1587 64.3368 77.1587Z" fill="white"/>
<path d="M49.8719 127.14C49.8719 127.14 51.6482 114.285 62.4587 112.25C72.4333 110.372 77.1649 114.646 76.091 121.915C75.5565 125.532 63.7191 131.047 56.6032 125.105" fill="white"/>
<path d="M76.0913 121.916C75.555 125.533 63.718 131.046 56.6029 125.106C56.3756 123.877 57.6044 122.905 58.7578 123.386C65.8074 126.323 74.9906 121.685 75.4613 118.509C75.5645 117.817 75.6126 117.151 75.6107 116.515C76.2322 118.024 76.3963 119.849 76.0913 121.916Z" fill="#E3E1EC"/>
<path d="M49.5721 127.098C49.3304 125.671 49.5802 124.304 49.99 122.995C50.3864 121.678 50.9914 120.426 51.7054 119.243C52.4305 118.066 53.2204 116.916 54.1742 115.891C55.1241 114.865 56.2121 113.952 57.4171 113.216C58.6194 112.476 59.9395 111.926 61.302 111.578L62.3294 111.349C62.6656 111.293 63 111.231 63.3374 111.179C64.0134 111.082 64.6931 110.997 65.3805 110.954C66.7527 110.86 68.1516 110.88 69.5485 111.122C70.9403 111.357 72.3431 111.83 73.5803 112.655C74.8219 113.468 75.8308 114.688 76.4038 116.058C76.9848 117.429 77.1891 118.902 77.1421 120.316C77.1401 120.672 77.1032 121.023 77.0755 121.374L77.0107 121.896L76.9943 122.027C76.9884 122.072 76.9712 122.139 76.9595 122.194L76.874 122.541C76.5672 123.398 76.0566 123.997 75.5342 124.522C74.4704 125.558 73.2541 126.277 71.998 126.882C69.4737 128.051 66.7144 128.694 63.9047 128.627C63.5539 128.618 63.2033 128.602 62.8527 128.562C62.5016 128.538 62.153 128.476 61.8035 128.424C61.4542 128.372 61.108 128.29 60.7579 128.229C60.4144 128.136 60.0612 128.072 59.723 127.952C59.3837 127.838 59.0433 127.721 58.7268 127.548C58.4007 127.397 58.0956 127.203 57.8034 126.994C57.2211 126.574 56.7232 126.023 56.4095 125.338C56.3326 125.17 56.4063 124.971 56.5747 124.894C56.6357 124.866 56.7008 124.858 56.7626 124.867L56.7982 124.872C57.1699 124.926 57.4734 125.043 57.7853 125.136C58.1003 125.223 58.3762 125.355 58.67 125.452C58.8138 125.506 58.953 125.566 59.0909 125.628C59.2322 125.683 59.3774 125.73 59.5158 125.789C59.6582 125.839 59.7919 125.909 59.9355 125.957C60.0784 126.006 60.219 126.061 60.3594 126.117C61.4786 126.593 62.7185 126.772 63.9533 126.808C66.4319 126.872 68.9581 126.288 71.2217 125.237C72.3419 124.701 73.4256 124.042 74.2562 123.227C74.6666 122.827 75.0064 122.368 75.145 121.973C75.153 121.927 75.163 121.883 75.1751 121.838C75.1807 121.812 75.189 121.801 75.1938 121.764L75.2079 121.648L75.2656 121.187C75.2886 120.881 75.3225 120.573 75.3229 120.268C75.3651 119.046 75.1828 117.841 74.7313 116.775C74.2814 115.709 73.5352 114.804 72.5656 114.165C71.6003 113.522 70.4477 113.118 69.239 112.915C68.03 112.705 66.7671 112.682 65.5053 112.769C64.874 112.808 64.2414 112.888 63.6099 112.979L62.6637 113.138L61.7565 113.34C60.559 113.646 59.4121 114.124 58.3634 114.77C56.2653 116.058 54.5332 117.958 53.3376 120.176C53.0427 120.733 52.7668 121.3 52.5154 121.88C52.2555 122.456 52.01 123.04 51.7707 123.628C51.301 124.809 50.8401 125.999 50.173 127.181L50.1617 127.201C50.0755 127.354 49.8818 127.408 49.7291 127.322C49.6428 127.273 49.588 127.188 49.5721 127.098Z" fill="#353D69"/>
<path d="M142.072 127.314C142.072 127.314 142.803 114.357 132.586 110.28C123.16 106.517 117.694 109.8 117.349 117.14C117.177 120.792 127.731 128.483 135.858 124.021L142.072 127.314Z" fill="white"/>
<path d="M135.858 124.022C127.732 128.482 117.178 120.793 117.348 117.14C117.446 115.054 117.959 113.294 118.859 111.933C118.735 112.557 118.654 113.219 118.622 113.919C118.472 117.126 126.591 123.445 134.074 121.919C135.299 121.669 136.317 122.86 135.858 124.022Z" fill="#E3E1EC"/>
<path d="M141.77 127.297C141.343 126.009 141.12 124.752 140.886 123.503C140.764 122.879 140.636 122.259 140.492 121.644C140.357 121.026 140.195 120.417 140.013 119.814C139.267 117.407 137.933 115.209 136.122 113.541C135.217 112.706 134.184 112.016 133.068 111.485L132.216 111.112L131.318 110.774C130.716 110.563 130.11 110.363 129.499 110.203C128.277 109.875 127.034 109.654 125.807 109.628C124.581 109.594 123.373 109.768 122.301 110.214C121.227 110.654 120.321 111.399 119.674 112.358C119.026 113.317 118.615 114.465 118.421 115.672C118.363 115.972 118.337 116.28 118.301 116.585L118.268 117.049L118.26 117.165C118.257 117.202 118.263 117.215 118.264 117.241C118.267 117.287 118.269 117.333 118.268 117.38C118.328 117.794 118.573 118.309 118.898 118.781C119.556 119.741 120.493 120.596 121.489 121.337C123.508 122.804 125.875 123.864 128.32 124.279C129.538 124.481 130.789 124.543 131.979 124.293C132.128 124.264 132.276 124.237 132.426 124.216C132.576 124.197 132.72 124.154 132.87 124.132C133.017 124.101 133.169 124.083 133.318 124.056C133.465 124.022 133.614 123.99 133.765 123.965C134.072 123.926 134.368 123.85 134.694 123.825C135.018 123.794 135.338 123.738 135.713 123.756L135.75 123.758C135.934 123.767 136.077 123.924 136.068 124.109C136.064 124.176 136.042 124.237 136.005 124.288C135.565 124.9 134.971 125.344 134.318 125.644C133.991 125.794 133.655 125.925 133.306 126.01C132.962 126.119 132.605 126.168 132.25 126.216C131.895 126.268 131.536 126.263 131.182 126.287C130.826 126.28 130.471 126.295 130.118 126.278C129.765 126.262 129.411 126.255 129.062 126.211C128.71 126.183 128.363 126.131 128.017 126.073C125.247 125.598 122.663 124.436 120.411 122.803C119.295 121.967 118.24 121.028 117.395 119.806C116.984 119.19 116.598 118.504 116.462 117.604L116.444 117.248C116.443 117.191 116.44 117.121 116.442 117.077L116.451 116.945L116.488 116.42C116.529 116.07 116.56 115.719 116.627 115.369C116.853 113.973 117.337 112.566 118.171 111.333C118.997 110.099 120.222 109.096 121.597 108.537C122.969 107.965 124.437 107.771 125.848 107.809C127.266 107.84 128.642 108.089 129.97 108.446C130.637 108.621 131.287 108.835 131.932 109.06C132.253 109.176 132.57 109.301 132.889 109.421L133.853 109.843C135.123 110.447 136.312 111.241 137.35 112.198C138.391 113.152 139.282 114.258 140.017 115.447C140.756 116.637 141.31 117.918 141.795 119.212C142.267 120.511 142.62 121.856 142.755 123.224C142.906 124.588 142.888 125.978 142.376 127.331C142.314 127.495 142.131 127.578 141.967 127.516C141.874 127.481 141.807 127.407 141.778 127.32L141.77 127.297Z" fill="#353D69"/>
<path d="M129.797 135.285H63.0752C60.047 135.285 57.5923 132.83 57.5923 129.802V129.522H135.28V129.802C135.28 132.83 132.825 135.285 129.797 135.285Z" fill="#353D69"/>
<path d="M135.281 129.521V129.801C135.281 132.828 132.824 135.285 129.797 135.285H63.0764C60.0466 135.285 57.5923 132.828 57.5923 129.801V129.521H57.8357C58.5249 131.759 60.6107 133.388 63.0764 133.388H129.797C132.26 133.388 134.348 131.759 135.037 129.521H135.281Z" fill="#E3E1EC"/>
<path d="M129.796 136.195H63.0741C59.5494 136.195 56.6816 133.328 56.6816 129.803V128.613H136.188V129.803C136.188 133.328 133.321 136.195 129.796 136.195ZM58.5447 130.433C58.8524 132.657 60.7665 134.376 63.0741 134.376H129.796C132.104 134.376 134.018 132.657 134.326 130.433H58.5447Z" fill="#353D69"/>
<path d="M61.0947 131.341H133.981C134.075 131.091 134.148 130.831 134.198 130.562H58.6763C58.9898 132.265 60.2294 133.634 61.8316 134.086C61.2472 133.623 60.7773 133.013 60.4769 132.309C60.2824 131.853 60.6126 131.341 61.0947 131.341Z" fill="white"/>
<path d="M123.532 135.225H69.8657C67.0016 135.225 64.595 133.199 64.2786 130.521L59.7358 92.0877C59.3654 88.9551 61.9721 86.2153 65.3227 86.2153H128.075C131.426 86.2153 134.032 88.9551 133.662 92.0877L129.119 130.521C128.803 133.199 126.396 135.225 123.532 135.225Z" fill="#F0F1F3"/>
<path d="M100.208 114.898C100.219 114.893 100.23 114.889 100.24 114.885C100.571 114.747 100.878 115.106 100.691 115.411C100.154 116.288 99.3386 117.006 98.3042 117.419C95.9665 118.353 93.2524 117.353 92.0844 115.123C90.7369 112.551 91.8679 109.419 94.4838 108.275C95.473 107.842 96.5271 107.759 97.508 107.97C97.8315 108.04 97.8784 108.481 97.575 108.613L97.5646 108.618C95.7592 109.408 94.9834 111.573 95.9256 113.345C96.7366 114.87 98.6078 115.547 100.208 114.898Z" fill="white"/>
<path d="M122.891 98.3126C122.684 98.1219 122.483 97.9231 122.281 97.7291C121.606 97.0761 120.933 96.4249 120.254 95.7751C120.211 95.7337 120.13 95.6938 120.08 95.7088C119.529 95.853 119.009 96.0731 118.515 96.3567C117.745 96.7974 117.148 97.4325 116.614 98.1302C116.044 98.8692 115.544 99.6567 115.124 100.49C114.7 101.331 114.304 102.184 113.903 103.034C113.878 103.083 113.868 103.174 113.896 103.205C114.06 103.379 114.238 103.541 114.423 103.72C114.823 103.306 115.204 102.91 115.588 102.512C116.104 101.977 116.619 101.443 117.136 100.91C117.322 100.721 117.56 100.683 117.764 100.804C118.056 100.976 118.099 101.344 117.85 101.599C116.992 102.492 116.129 103.382 115.27 104.274C115.229 104.317 115.187 104.359 115.149 104.4C115.166 104.428 115.171 104.443 115.181 104.452C115.331 104.599 115.489 104.742 115.633 104.892C115.699 104.96 115.751 104.957 115.83 104.92C117.454 104.153 119.027 103.298 120.448 102.187C120.971 101.778 121.46 101.332 121.871 100.807C122.403 100.122 122.731 99.3434 122.945 98.5097C122.967 98.4253 122.952 98.3706 122.891 98.3126ZM121.356 99.693C120.698 100.364 119.627 100.386 118.959 99.7377C118.288 99.0913 118.271 98.0208 118.921 97.343C119.559 96.6784 120.632 96.6634 121.305 97.3098C121.971 97.9528 121.996 99.0383 121.356 99.693Z" fill="white"/>
<path d="M123.128 97.4296C122.455 96.7793 121.799 96.1452 121.141 95.509C121.14 95.4918 121.141 95.4732 121.141 95.4543C121.792 95.4352 122.445 95.4168 123.106 95.3965C123.199 96.0951 123.191 96.7503 123.128 97.4296Z" fill="black"/>
<path d="M114.818 98.9402C114.308 99.9106 113.798 100.883 113.278 101.871C112.511 101.742 111.718 101.61 110.903 101.475C111.578 100.499 112.315 99.6254 113.413 99.1391C113.886 98.9279 114.459 98.8536 114.818 98.9402Z" fill="black"/>
<path d="M119.232 106.349C118.77 106.959 118.199 107.448 117.57 107.91C117.402 107.078 117.237 106.265 117.075 105.467C118.046 104.911 118.995 104.367 119.951 103.819C120.032 104.093 120.028 104.396 119.982 104.699C119.886 105.319 119.605 105.853 119.232 106.349Z" fill="black"/>
<path d="M120.762 99.1509C120.429 99.4923 119.866 99.5008 119.515 99.1688C119.156 98.8277 119.152 98.2466 119.508 97.8886C119.842 97.5509 120.416 97.5468 120.755 97.8811C121.11 98.2295 121.113 98.7934 120.762 99.1509Z" fill="#353D69"/>
<g style="mix-blend-mode:screen">
<path d="M126.285 130.629L130.828 92.1956C130.952 91.1454 130.628 90.1088 129.914 89.2768C129.107 88.3345 127.911 87.783 126.615 87.7382C126.616 87.7353 126.617 87.7322 126.617 87.7295C124.76 94.1113 114.402 129.701 65.3213 131.054C65.7558 132.892 67.5291 134.23 69.6253 134.23H121.904C124.159 134.23 126.042 132.682 126.285 130.629Z" fill="#191C1E"/>
</g>
<path d="M66.6127 131.275L62.0699 92.8412C61.9383 91.7286 62.2806 90.6323 63.034 89.7536C63.9165 88.724 65.2374 88.1335 66.6582 88.1335H129.411C129.899 88.1335 130.373 88.2082 130.824 88.3415C130.731 88.2022 130.631 88.0655 130.52 87.9351C129.637 86.9057 128.316 86.3154 126.896 86.3154H64.1432C62.7224 86.3154 61.4015 86.906 60.519 87.9356C59.7656 88.8142 59.4233 89.9106 59.5549 91.0232L64.0977 129.457C64.2997 131.165 65.5773 132.538 67.2695 133.039C66.9216 132.518 66.6891 131.921 66.6127 131.275Z" fill="#767680"/>
<path d="M123.292 136.135H69.6253C66.2962 136.135 63.5059 133.767 63.1348 130.628L58.5918 92.1948C58.3898 90.4861 58.9213 88.8215 60.0885 87.5083C61.3325 86.1084 63.1527 85.3057 65.0823 85.3057H127.835C129.764 85.3057 131.584 86.1084 132.828 87.5083C133.996 88.8215 134.527 90.4861 134.325 92.1948L129.782 130.628C129.411 133.767 126.621 136.135 123.292 136.135ZM65.0823 87.1251C63.6723 87.1251 62.3476 87.7055 61.4486 88.7172C60.6314 89.6365 60.2589 90.7958 60.3989 91.981L64.9417 130.414C65.2047 132.638 67.2182 134.315 69.6253 134.315H123.292C125.699 134.315 127.712 132.638 127.975 130.414L132.518 91.981C132.658 90.7958 132.285 89.6365 131.468 88.7172C130.569 87.7055 129.245 87.1251 127.835 87.1251H65.0823Z" fill="#353D69"/>
<g style="mix-blend-mode:multiply">
<path d="M75.511 110.997H72.0114C70.7553 110.997 69.7373 109.978 69.7373 108.722V97.1671C69.7373 95.9111 70.7553 94.8931 72.0114 94.8931H75.511C76.767 94.8931 77.785 95.9111 77.785 97.1671V108.722C77.785 109.978 76.767 110.997 75.511 110.997Z" fill="#F0F1F3"/>
</g>
<path d="M100.833 114.272C100.843 114.267 100.854 114.263 100.865 114.258C101.195 114.121 101.503 114.48 101.316 114.786C100.778 115.662 99.963 116.38 98.9285 116.793C96.5908 117.727 93.877 116.728 92.709 114.497C91.3615 111.925 92.4922 108.793 95.1081 107.649C96.0973 107.217 97.1516 107.133 98.1326 107.344C98.456 107.414 98.5027 107.856 98.1994 107.988L98.1892 107.992C96.3838 108.782 95.6077 110.947 96.55 112.719C97.3609 114.244 99.2321 114.921 100.833 114.272Z" fill="#00115A"/>
</g>
</g>
<defs>
<clipPath id="clip0_1112_26877">
<rect width="180" height="180" fill="white" transform="translate(0 0.314453)"/>
</clipPath>
</defs>
</svg>
