<svg width="140" height="162" fill="none" xmlns="http://www.w3.org/2000/svg"><path d="M72.386.966a7.993 7.993 0 00-7.411 2.986A5.161 5.161 0 0059.71 5.92a5.191 5.191 0 00-.368 5.62 5.749 5.749 0 00-2.406 4.44 5.765 5.765 0 002.017 4.631L78.591 6.023a8.028 8.028 0 00-2.428-3.36A8.001 8.001 0 0072.386.966z" fill="#191C1E"/><path d="M58.809 21.545a20.092 20.092 0 017.03-12.816 20.002 20.002 0 0113.838-4.636l1.033.05c11.142 1.209 16.346 11.374 14.828 22.503l-3.47 37.225-.184 1.81-26.047 3.899.51-9.513s-10.663-2.205-10.262-12.983c.192-5.204 1.46-15.886 2.724-25.54z" fill="#AE7461"/><path d="M66.258 60.049a26.06 26.06 0 0014.28-3.427s-3.693 7.582-14.363 6.08l.083-2.653z" fill="#6F4439"/><path d="M61.672 31.492a1.544 1.544 0 001.397 1.63 1.47 1.47 0 001.651-1.278 1.53 1.53 0 00-1.396-1.682 1.463 1.463 0 00-1.485.765c-.093.175-.15.367-.167.565zM60.855 26.927c.179.211 1.384-.594 3.036-.505 1.652.09 2.819.972 3.01.78.09-.083-.083-.454-.593-.87a4.197 4.197 0 00-2.398-.869 4.05 4.05 0 00-2.43.64c-.523.377-.714.735-.625.824zM77.036 32.719a1.536 1.536 0 001.397 1.624 1.47 1.47 0 001.652-1.279 1.55 1.55 0 00-1.403-1.63 1.465 1.465 0 00-1.646 1.285zM77.068 28.047c.179.21 1.384-.595 3.036-.506 1.652.09 2.819.972 3.01.78.09-.09-.083-.46-.593-.869a4.261 4.261 0 00-2.398-.876 4.05 4.05 0 00-2.43.64c-.49.39-.714.735-.625.83zM70.467 40.02c0-.096-1.002-.326-2.653-.64-.421-.064-.817-.166-.874-.46a2.183 2.183 0 01.344-1.24l1.403-3.152c1.958-4.475 3.4-8.202 3.221-8.31-.178-.109-1.913 3.503-3.878 7.997l-1.352 3.196a2.44 2.44 0 00-.319 1.7 1.069 1.069 0 00.638.64c.229.077.467.122.708.134 1.716.167 2.749.224 2.762.135zM75.289 41.407c-.268 0-.364 1.764-1.958 2.966-1.594 1.202-3.495.901-3.52 1.15 0 .116.408.371 1.211.435a4.457 4.457 0 002.934-.863 3.92 3.92 0 001.53-2.493c.084-.748-.095-1.202-.197-1.195zM76.959 21.538c.14.46 1.805.326 3.724.64 1.92.313 3.47.94 3.744.55.128-.193-.127-.64-.733-1.094a6.37 6.37 0 00-2.743-1.119 6.204 6.204 0 00-2.946.205c-.727.268-1.104.6-1.046.818zM61.698 22.171c.274.39 1.428.058 2.8.109 1.37.051 2.512.377 2.8 0 .127-.186-.039-.569-.53-.946a3.82 3.82 0 00-2.239-.76 3.884 3.884 0 00-2.27.638c-.498.39-.676.768-.561.96z" fill="#191C1E"/><path d="M60.084 16.66s3.189-6.603 6.493-8.016c4.018-1.707 5.497 2.698 9.292 1.835s7.653-2.506 11.314.588c4.03 3.382 1.958 5.51 1.977 10.299.09 19.421 3.349 25.079 4.803 15.982.159-.991 2.965-1.65 3.584-5.85.803-5.453 1.346-12.088.319-16.039-.868-3.324-2.615-5.683-5.836-8.343-5.102-4.2-12.315-4.647-17.264-4.391-4.95.255-14.708 5.472-14.682 13.936z" fill="#191C1E"/><path d="M93.293 37.04a2.933 2.933 0 011.075-2.032 2.918 2.918 0 012.21-.627c1.996.295 4.171 1.541 3.826 5.684-.6 7.351-7.838 5.235-7.832 5.018.007-.217.44-4.967.721-8.042z" fill="#AE7461"/><path d="M94.42 42.449c.039 0 .122.102.332.217.292.157.633.193.95.103.798-.224 1.55-1.4 1.697-2.724a4.35 4.35 0 00-.21-1.866 1.485 1.485 0 00-.88-1.062.636.636 0 00-.785.294c-.115.199-.076.346-.115.358-.038.013-.153-.14-.064-.434a.793.793 0 01.326-.441.968.968 0 01.72-.128 1.784 1.784 0 011.238 1.278c.264.661.36 1.377.28 2.085-.172 1.483-1.04 2.806-2.124 3.023a1.362 1.362 0 01-1.154-.288c-.21-.236-.261-.402-.21-.415z" fill="#6F4439"/><path d="M96.06 24.6a7.491 7.491 0 01-3.43 1.381c-1.276.064-2.628-.722-2.775-1.962-.07-.556.096-1.19-.242-1.637-.338-.447-1.218-.409-1.913-.37a5.094 5.094 0 01-3.24-1.046 5.115 5.115 0 01-1.862-2.854c-.638.857-1.997.748-2.858.128-.86-.62-1.384-1.586-2.04-2.417-.657-.83-1.601-1.598-2.654-1.502-.587.058-1.154.377-1.74.294-1.034-.14-1.48-1.387-1.589-2.43-.108-1.041-.172-2.256-1.02-2.863-.849-.607-1.863-.313-2.832-.217-.97.095-2.188-.192-2.385-1.145a1.923 1.923 0 01.427-1.425A5.123 5.123 0 0172.1 4.892a7.146 7.146 0 012.409-3.241A7.12 7.12 0 0178.286.238c2.723-.154 5.262-.933 6.448 1.534 1.748-1.438 4.42.448 6.601 1.061a7.19 7.19 0 014.758 4.475 5.09 5.09 0 015.279 2.068 5.122 5.122 0 01.116 5.68c1.384.882 2.551 2.366 2.481 4.008-.07 1.643-1.728 3.197-3.291 2.692a2.848 2.848 0 01-1.366 3.561 2.831 2.831 0 01-3.672-1.004" fill="#191C1E"/><path d="M115.749 127.971l21.684-4.692s-2.972-16.353-6.671-32.935c-2.953-13.227-17.532-16.896-17.532-16.896l-16.895-7.486-2.277-8.79c-9.286 4.603-18.298 9.033-23.732 11.251l-4.974-5.51-2.111 6.616-1.78.185s-7.353 2.238-8.093 2.295c-6.728.537-15.504 8.087-18.789 15.982-1.358 3.267-6.62 22.803-10.472 43.03-2.793 14.633-4.407 28.837-5.102 30.762l21.684.044 5-30.806L47.156 162l73.81-.23-5.249-31.133.032-2.666z" fill="#BAC3FF"/><path d="M42.456 94.62c-.064 0 .548 8.157 1.37 18.207.824 10.049 1.544 18.193 1.614 18.187.07-.006-.548-8.157-1.37-18.207-.823-10.049-1.544-18.193-1.614-18.187z" fill="#191C1E"/><path d="M96.335 66.236L74.389 77.283l-4.088-8.95s7.347-3.196 14.03-6.738c6.819-3.644 9.472-4.417 9.472-4.417M65.116 62.919l4.975 5.504-4.484 8.017-2.602-6.905" fill="#767680"/><path d="M117.949 76.51c.038.044-.689.639-1.716 1.668a20.85 20.85 0 00-5.364 10.01c-.312 1.44-.389 2.353-.446 2.353a2.282 2.282 0 010-.639c.032-.588.102-1.173.21-1.752a18.682 18.682 0 015.434-10.132c.421-.41.868-.793 1.339-1.144.161-.15.344-.273.543-.365zM70.326 68.334c.045 0-.484.843-1.275 2.186-.79 1.342-1.862 3.234-2.876 5.395-.083.18-.16.358-.236.518l-.16.345-.16-.339a43.173 43.173 0 01-2.13-5.363 31.504 31.504 0 01-.471-1.662 1.979 1.979 0 01-.109-.64c.045 0 .319.838.81 2.213a58.104 58.104 0 002.2 5.286h-.312l.236-.524a44.666 44.666 0 012.985-5.376c.427-.64.797-1.183 1.058-1.535.124-.187.272-.357.44-.504z" fill="#191C1E"/><path d="M94.423 67.24a1.916 1.916 0 00-.306.128l-.849.403-3.093 1.515-10.204 5.082-5.6 2.826.153.057-2.985-6.43c-.363-.768-.637-1.382-.873-1.83l-.236-.485a.742.742 0 00-.096-.16.588.588 0 00.064.18l.204.491.816 1.86c.72 1.605 1.729 3.836 2.902 6.464l.051.102.102-.051 5.606-2.806 10.147-5.147 3.061-1.585.83-.441c.109-.044.211-.102.306-.173z" fill="#191C1E"/><path d="M135.061 112.053s4.502 21.806 4.866 26.85c.72 9.876-4.005 15.796-8.463 18.603-4.631 2.908-30.76 4.283-30.76 4.283l-1.582-15.663 16.984-10.311-2.302-17.849 21.257-5.913z" fill="#BAC3FF"/><path d="M116.01 135.213a2.885 2.885 0 00-.032-.358c-.038-.255-.083-.594-.146-1.022-.134-.914-.326-2.193-.562-3.759-.504-3.197-1.186-7.569-1.945-12.396-1.492-9.442-2.551-16.244-2.768-17.522a1.946 1.946 0 000 .358c0 .243.058.588.109 1.029.108.895.287 2.18.516 3.772a727.453 727.453 0 001.914 12.402c.784 4.839 1.479 9.218 2.015 12.382.261 1.56.485 2.839.638 3.746.076.422.14.761.185 1.017.014.119.04.237.076.351zM132.867 156.598a.777.777 0 00-.134.102 1.921 1.921 0 01-.383.288 7.754 7.754 0 01-1.69.786 41.21 41.21 0 01-6.729 1.598 200.162 200.162 0 01-23.234 2.276l.128.102c-.16-1.54-.319-3.196-.491-4.82-.383-3.797-.753-7.46-1.097-10.835l-.057.108 16.46-9.966 4.752-2.902 1.275-.787.319-.204.109-.077s-.039 0-.115.058l-.338.191-1.276.748-4.789 2.852-16.5 9.889-.063.038v.071c.338 3.382.708 7.032 1.09 10.867.166 1.65.332 3.28.491 4.821v.115h.109a191.59 191.59 0 0023.247-2.353 40.11 40.11 0 006.734-1.675 7.455 7.455 0 001.684-.831c.137-.088.263-.191.377-.307.045-.047.085-.098.121-.153z" fill="#191C1E"/><path d="M127.586 129.351a1.052 1.052 0 00-.638-.377c-1.275-.287-2.551.173-3.712.71a25.231 25.231 0 00-8.986 7.236l.293-.166c3.98-2.359 7.501-4.75 11.767-5.888a2.607 2.607 0 001.065-.46.844.844 0 00.211-1.055z" fill="#191C1E" opacity=".3"/><path d="M99.359 147.079l-2.2.204s-.288-3.196-.785-4.436c-.498-1.24-1.429-5.076-1.429-5.076s-9.84-4.149-10.058-4.149c-.216 0-9.84 2.659-9.84 2.659s.216 2.641 3.495 2.788a22.755 22.755 0 005.848-.499l3.068 1.144-6.136.39-10.765 6.47s.07 1.918 4.28.927c4.208-.991 6.377-2.788 6.377-2.788l7.915 1.158-8.374.396-6.276 3.145s.051 2.608 2.621 1.963c2.57-.646 4.292-1.03 4.292-1.03l7.488.889-6.346.352s-4.28.115-4.063 1.278c.217 1.164 3.355 2.142 3.355 2.142l4.465.792s.165 2.001.95 2.641c.784.639 1.996 1.54 2.71 1.553.715.013 10.766.55 10.766.55l-1.358-13.463z" fill="#AE7461"/><path d="M93.873 156.846c.137-.068.265-.151.383-.249a6.16 6.16 0 00.886-.856 7.12 7.12 0 001.614-3.721 6.917 6.917 0 00-.102-2.257c-.147-.677-.383-1.278-.453-1.758a2.36 2.36 0 01.096-1.182c.056-.138.12-.272.19-.403a.881.881 0 00-.267.371c-.17.387-.228.815-.166 1.234.051.53.275 1.118.408 1.783.142.72.17 1.458.083 2.186a7.378 7.378 0 01-1.518 3.651c-.358.425-.743.827-1.154 1.201zM92.66 156.099a25.492 25.492 0 00-3.277-.224 25.982 25.982 0 00-3.278 0c1.084.145 2.177.22 3.271.224 1.094.069 2.191.069 3.285 0zM92.176 151.349a7.15 7.15 0 00-1.741-.077 7.262 7.262 0 00-1.735.128 6.859 6.859 0 001.735.083 7.114 7.114 0 001.741-.134zM92.507 140.322c0-.064-1.09.121-2.423 0-1.333-.122-2.36-.518-2.379-.454a5.61 5.61 0 002.36.639 5.733 5.733 0 002.442-.185z" fill="#6F4439"/><path d="M.031 115.39l9.426 46.385h81.827a1.643 1.643 0 001.639-1.636 1.637 1.637 0 00-1.639-1.643H74.816l-8.743-43.138a1.776 1.776 0 00-1.728-1.432l-62.535-.659a1.795 1.795 0 00-1.752 1.337 1.795 1.795 0 00-.027.786z" fill="#767680"/><path d="M.03 115.39a1.114 1.114 0 010-.141 1.41 1.41 0 010-.422 1.812 1.812 0 01.868-1.355c.168-.1.351-.171.542-.211.21-.041.425-.056.638-.045h1.473l3.68.032 23.643.224 16.48.166 9.235.096 4.847.051h3.112c.221.026.437.089.638.186.4.2.72.535.9.946.077.207.135.421.171.639l.128.639.255 1.279c.166.837.338 1.681.51 2.557.345 1.705.693 3.424 1.046 5.159.71 3.482 1.433 7.043 2.169 10.682 1.48 7.269 3.01 14.838 4.592 22.63l-.109-.089h16.193c.214-.012.428.001.638.038.436.092.82.349 1.071.716a1.757 1.757 0 01-.6 2.557 1.809 1.809 0 01-.77.205H9.38v-.07a34806.699 34806.699 0 00-6.85-33.882l-1.862-9.346-.479-2.416c-.108-.55-.153-.825-.153-.825s.064.275.179.818c.115.544.28 1.355.504 2.417.433 2.122 1.078 5.242 1.913 9.256 1.645 8.036 4.012 19.626 6.926 33.882l-.083-.071h81.871c.235-.01.464-.073.67-.185a1.518 1.518 0 00.744-1.63 1.523 1.523 0 00-.253-.582 1.548 1.548 0 00-.931-.639 2.943 2.943 0 00-.593-.032H74.72v-.09c-1.582-7.792-3.113-15.342-4.586-22.63l-2.156-10.682a923.45 923.45 0 00-1.046-5.165c-.172-.851-.344-1.694-.51-2.558-.083-.415-.172-.837-.255-1.278l-.128-.639a2.406 2.406 0 00-.159-.588 1.676 1.676 0 00-1.365-1.011h-.638l-2.474-.031-4.84-.058-9.236-.102-16.48-.198-23.642-.288-3.686-.051H2.053a2.899 2.899 0 00-.638.038 1.763 1.763 0 00-1.39 1.528 1.96 1.96 0 00.006.569z" fill="#191C1E"/><path d="M37.742 136.62a2.717 2.717 0 01-1.669 2.504 2.696 2.696 0 01-2.947-.587 2.712 2.712 0 01-.586-2.954 2.706 2.706 0 015.202 1.037z" fill="#fff"/><path d="M.12 115.767H4.406l11.703.058 38.592.275 5.58.044h1.372c.234-.007.47.008.701.045.227.052.442.143.638.269.409.258.705.662.829 1.131.102.454.178.882.274 1.323.689 3.491 1.359 6.866 1.99 10.075 1.276 6.393 2.41 12.204 3.368 17.062.956 4.859 1.715 8.784 2.244 11.507l.638 3.133.147.812c.032.172.044.281.044.281s0-.096-.063-.275c-.064-.179-.102-.46-.172-.812a255.17 255.17 0 01-.638-3.119c-.549-2.724-1.34-6.649-2.322-11.507-.982-4.859-2.124-10.638-3.412-17.056-.638-3.197-1.275-6.578-2.009-10.069-.083-.434-.166-.888-.261-1.278a1.687 1.687 0 00-.74-.998 1.64 1.64 0 00-.587-.236 2.726 2.726 0 00-.638-.038h-1.37l-5.581-.045-38.598-.339-11.697-.128-3.189-.045H.426l-.306-.07z" fill="#191C1E"/></svg>