<svg width="1128" height="708" fill="none" xmlns="http://www.w3.org/2000/svg"><mask id="prefix__a" style="mask-type:alpha" maskUnits="userSpaceOnUse" x="0" y="0" width="1128" height="708"><rect width="1128" height="708" rx="16" fill="#D9D9D9"/></mask><g mask="url(#prefix__a)"><g opacity=".32"><mask id="prefix__b" style="mask-type:alpha" maskUnits="userSpaceOnUse" x="-52" y="-70" width="279" height="279"><circle cx="87.5" cy="69.5" r="137.576" fill="#C4C4C4" stroke="#F8BB54" stroke-width="3.848"/></mask><g mask="url(#prefix__b)" stroke="#006B55" stroke-width="4.326" stroke-miterlimit="10"><path d="M-133.071 8.746s79.695-13.889 100.224-64.72C-13.275-104.5 67.657-116.87 67.657-116.87"/><path d="M-133.071 29.044s94.374-15.8 118.67-75.234c23.173-56.847 119.009-70.68 119.009-70.68"/><path d="M-133.071 49.287S-23.961 31.631 4.104-36.518c26.715-65.001 137.455-80.352 137.455-80.352"/><path d="M-133.071 69.53S-9.226 50.017 22.607-26.79c30.258-73.211 155.847-90.08 155.847-90.08"/><path d="M-133.071 89.828S5.453 68.461 41.055-17.064c33.913-81.475 174.35-99.806 174.35-99.806"/><path d="M-133.071 110.07S20.189 86.792 59.559-7.336C97.014-97.02 252.355-116.87 252.355-116.87"/><path d="M-133.071 130.313S34.924 105.178 78.005 2.336C119.062-95.503 289.307-116.87 289.307-116.87"/><path d="M-133.071 150.612s182.674-26.99 229.58-138.493C141.11-94.04 326.202-116.87 326.202-116.87"/><path d="M-133.071 170.853s197.41-28.844 248.028-149.006C163.156-92.523 363.153-116.87 363.153-116.87"/><path d="M-133.071 191.152S79.074 160.395 133.46 31.575C185.203-91.005 400.104-116.87 400.104-116.87"/><path d="M-133.071 211.396S93.753 178.783 151.908 41.303C207.25-89.542 437.054-116.87 437.054-116.87"/><path d="M-133.071 231.636s241.56-34.466 303.482-180.662C229.297-88.024 474.005-116.87 474.005-116.87"/><path d="M-133.071 251.935s256.295-36.378 321.986-191.177C251.343-86.506 510.901-116.87 510.901-116.87"/><path d="M-133.071 272.179s270.974-38.236 340.433-201.75c66.029-155.473 340.49-187.299 340.49-187.299"/><path d="M-133.071 292.423s285.71-40.093 358.937-212.267C295.437-83.525 584.803-116.87 584.803-116.87"/><path d="M-133.071 312.722s300.445-41.95 377.384-222.838c73.171-171.892 377.44-206.754 377.44-206.754"/><path d="M-133.071 332.962s315.124-43.858 395.888-233.35C339.531-80.546 658.65-116.87 658.65-116.87"/></g></g><g opacity=".32"><mask id="prefix__c" style="mask-type:alpha" maskUnits="userSpaceOnUse" x="919" y="491" width="279" height="279"><circle cx="1058.5" cy="630.5" r="137.576" fill="#C4C4C4" stroke="#F8BB54" stroke-width="3.848"/></mask><g mask="url(#prefix__c)" stroke="#006B55" stroke-width="4.326" stroke-miterlimit="10"><path d="M837.929 549.504s64.959-12.034 81.719-54.149c16.029-40.373 82.062-51.225 82.062-51.225"/><path d="M837.929 569.746s79.695-13.889 100.223-64.72c19.572-48.526 100.508-60.896 100.508-60.896"/><path d="M837.929 590.045s94.374-15.801 118.67-75.235c23.172-56.847 119.011-70.68 119.011-70.68"/><path d="M837.929 610.287s109.109-17.656 137.174-85.805c26.717-65.001 137.457-80.352 137.457-80.352"/><path d="M837.929 630.53s123.845-19.512 155.678-96.321c30.253-73.21 155.843-90.079 155.843-90.079"/><path d="M837.929 650.828s138.524-21.367 174.121-106.891c33.92-81.476 174.35-99.807 174.35-99.807"/><path d="M837.929 671.07s153.259-23.278 192.631-117.406c37.45-89.685 192.8-109.534 192.8-109.534"/><path d="M837.929 691.313S1005.92 666.178 1049 563.336c41.06-97.839 211.31-119.206 211.31-119.206"/><path d="M837.929 711.612s182.671-26.99 229.581-138.493c44.6-106.16 229.69-128.989 229.69-128.989"/><path d="M837.929 731.853s197.411-28.844 248.031-149.006c48.2-114.37 248.19-138.717 248.19-138.717"/><path d="M837.929 752.152s212.141-30.757 266.531-159.577c51.74-122.58 266.64-148.445 266.64-148.445"/><path d="M837.929 772.396s226.821-32.613 284.981-170.093c55.34-130.845 285.14-158.173 285.14-158.173"/><path d="M837.929 792.636s241.561-34.466 303.481-180.662C1200.3 472.976 1445 444.13 1445 444.13"/><path d="M837.929 812.935s256.291-36.378 321.981-191.177c62.43-147.264 321.99-177.628 321.99-177.628"/><path d="M837.929 833.179s270.971-38.236 340.431-201.75c66.03-155.473 340.49-187.299 340.49-187.299"/><path d="M837.929 853.423s285.711-40.093 358.941-212.266c69.57-163.683 358.93-197.027 358.93-197.027"/><path d="M837.929 873.722s300.441-41.95 377.381-222.838c73.17-171.892 377.44-206.754 377.44-206.754"/><path d="M837.929 893.962s315.121-43.858 395.891-233.35c76.71-180.158 395.83-216.482 395.83-216.482"/></g></g></g><g clip-path="url(#prefix__clip0_995_13219)" fill="#353D69" opacity=".5"><path d="M1090.25 124.91c1.46 0 2.64-1.182 2.64-2.64 0-1.458-1.18-2.64-2.64-2.64a2.639 2.639 0 00-2.64 2.64c0 1.458 1.18 2.64 2.64 2.64zM1066.31 124.91c1.46 0 2.64-1.182 2.64-2.64 0-1.458-1.18-2.64-2.64-2.64a2.639 2.639 0 00-2.64 2.64c0 1.458 1.18 2.64 2.64 2.64zM1042.38 124.91c.52.002 1.04-.152 1.48-.442.43-.29.77-.703.98-1.187a2.675 2.675 0 00-.57-2.891 2.633 2.633 0 00-1.36-.728 2.644 2.644 0 00-2.72 1.125c-.29.436-.45.949-.45 1.473 0 .701.28 1.374.77 1.87.5.497 1.17.777 1.87.78zM1018.45 124.91c.52 0 1.04-.155 1.47-.446.44-.292.78-.706.98-1.19a2.648 2.648 0 00-.58-2.888 2.637 2.637 0 00-2.88-.574 2.663 2.663 0 00-1.64 2.448c0 .348.07.693.2 1.014.13.322.33.614.58.86.24.246.53.441.86.574.32.134.66.202 1.01.202zM994.51 124.91a2.64 2.64 0 100-5.28 2.64 2.64 0 000 5.28zM971.59 124.595a2.64 2.64 0 10-2.006-4.883 2.64 2.64 0 002.006 4.883zM946.65 119.66a2.654 2.654 0 00-2.456 1.631 2.648 2.648 0 001.932 3.618 2.647 2.647 0 003.164-2.609 2.647 2.647 0 00-2.64-2.64zM1090.25 103.5c1.46 0 2.64-1.182 2.64-2.64 0-1.458-1.18-2.64-2.64-2.64a2.639 2.639 0 00-2.64 2.64c0 1.458 1.18 2.64 2.64 2.64zM1066.31 103.5c1.46 0 2.64-1.182 2.64-2.64 0-1.458-1.18-2.64-2.64-2.64a2.639 2.639 0 00-2.64 2.64c0 1.458 1.18 2.64 2.64 2.64zM1042.38 103.5a2.66 2.66 0 001.48-.442c.43-.291.77-.705.98-1.189.2-.485.25-1.019.15-1.534a2.58 2.58 0 00-.73-1.359 2.648 2.648 0 10-3.74 3.748c.49.494 1.16.773 1.86.776zM1018.45 103.5c.52 0 1.04-.156 1.47-.447.44-.292.78-.706.98-1.191a2.642 2.642 0 00-.58-2.89c-.37-.37-.84-.621-1.36-.722a2.644 2.644 0 00-1.53.155c-.49.202-.9.543-1.19.98-.29.437-.44.95-.44 1.475 0 .347.07.692.2 1.013.14.32.33.612.58.857.24.246.53.44.86.572.32.132.66.199 1.01.198zM994.51 103.5a2.64 2.64 0 100-5.28 2.64 2.64 0 000 5.28zM971.593 103.193a2.64 2.64 0 10-2.007-4.883 2.64 2.64 0 002.007 4.883zM946.65 103.5a2.653 2.653 0 002.449-1.638 2.646 2.646 0 00-.579-2.89 2.644 2.644 0 00-2.891-.567A2.65 2.65 0 00944 100.86a2.65 2.65 0 00.777 1.87 2.646 2.646 0 001.873.77zM1090.25 82.09c1.46 0 2.64-1.182 2.64-2.64 0-1.458-1.18-2.64-2.64-2.64a2.639 2.639 0 00-2.64 2.64c0 1.458 1.18 2.64 2.64 2.64zM1066.31 82.09c1.46 0 2.64-1.182 2.64-2.64 0-1.458-1.18-2.64-2.64-2.64a2.639 2.639 0 00-2.64 2.64c0 1.458 1.18 2.64 2.64 2.64zM1042.38 82.1c.52.002 1.04-.152 1.48-.442.43-.29.77-.703.98-1.187a2.675 2.675 0 00-.57-2.891 2.637 2.637 0 00-1.36-.728 2.64 2.64 0 00-2.72 1.125c-.29.436-.45.948-.45 1.473 0 .701.28 1.374.77 1.87.5.497 1.17.777 1.87.78zM1018.45 82.1c.52 0 1.04-.155 1.47-.447.44-.29.78-.705.98-1.189a2.645 2.645 0 00-.58-2.888 2.637 2.637 0 00-2.88-.574 2.663 2.663 0 00-1.64 2.448c0 .348.07.693.2 1.014.13.322.33.614.58.86.24.246.53.441.86.574.32.133.66.202 1.01.202zM994.51 82.09a2.64 2.64 0 100-5.28 2.64 2.64 0 000 5.28zM971.591 81.791a2.64 2.64 0 10-2.008-4.883 2.64 2.64 0 002.008 4.883zM946.65 82.1a2.648 2.648 0 002.599-3.167 2.645 2.645 0 00-2.082-2.082 2.649 2.649 0 10-.517 5.249zM1090.25 60.69c1.46 0 2.64-1.182 2.64-2.64 0-1.458-1.18-2.64-2.64-2.64a2.639 2.639 0 00-2.64 2.64c0 1.458 1.18 2.64 2.64 2.64zM1066.31 60.69c1.46 0 2.64-1.182 2.64-2.64 0-1.458-1.18-2.64-2.64-2.64a2.639 2.639 0 00-2.64 2.64c0 1.458 1.18 2.64 2.64 2.64zM1042.38 60.66c.53.002 1.04-.152 1.48-.442.43-.29.77-.705.98-1.19.2-.484.25-1.017.15-1.532a2.58 2.58 0 00-.73-1.36 2.648 2.648 0 10-3.74 3.748c.49.495 1.16.773 1.86.776zM1018.45 60.66c.52 0 1.04-.156 1.47-.447.44-.292.78-.706.98-1.191a2.642 2.642 0 00-.58-2.89 2.644 2.644 0 00-2.89-.568c-.49.203-.9.544-1.19.981-.29.437-.44.95-.44 1.475 0 .348.07.692.2 1.013.14.32.33.612.58.857.24.246.53.44.86.572.32.132.66.2 1.01.198zM994.51 60.69a2.64 2.64 0 100-5.28 2.64 2.64 0 000 5.28zM971.594 60.39a2.64 2.64 0 10-2.007-4.884 2.64 2.64 0 002.007 4.883zM946.65 60.66a2.648 2.648 0 002.598-3.17 2.646 2.646 0 00-2.087-2.08A2.65 2.65 0 00944 58.02a2.646 2.646 0 001.637 2.442c.321.132.666.2 1.013.198zM1090.25 39.28c1.46 0 2.64-1.182 2.64-2.64 0-1.458-1.18-2.64-2.64-2.64a2.639 2.639 0 00-2.64 2.64c0 1.458 1.18 2.64 2.64 2.64zM1066.31 39.28c1.46 0 2.64-1.182 2.64-2.64 0-1.458-1.18-2.64-2.64-2.64a2.639 2.639 0 00-2.64 2.64c0 1.458 1.18 2.64 2.64 2.64zM1042.38 39.29c.52.002 1.04-.152 1.48-.442.43-.29.77-.703.98-1.187a2.675 2.675 0 00-.57-2.891 2.637 2.637 0 00-1.36-.728 2.642 2.642 0 00-2.72 1.125c-.29.436-.45.948-.45 1.473 0 .701.28 1.374.77 1.87.5.497 1.17.777 1.87.78zM1018.45 39.29c.52 0 1.04-.155 1.47-.447.44-.29.78-.705.98-1.189a2.645 2.645 0 00-.58-2.888 2.639 2.639 0 00-2.88-.574 2.663 2.663 0 00-1.64 2.448c0 .348.07.693.2 1.014.13.322.33.614.58.86.24.246.53.441.86.574.32.133.66.202 1.01.202zM994.51 39.28a2.64 2.64 0 100-5.28 2.64 2.64 0 000 5.28zM971.592 38.978a2.64 2.64 0 10-2.008-4.884 2.64 2.64 0 002.008 4.884zM946.65 39.29a2.647 2.647 0 002.599-3.167 2.645 2.645 0 00-2.082-2.082 2.65 2.65 0 10-.517 5.249z"/></g><g clip-path="url(#prefix__clip1_995_13219)" fill="#353D69" opacity=".5"><path d="M179.25 676.91a2.64 2.64 0 100-5.28 2.64 2.64 0 000 5.28zM155.31 676.91a2.64 2.64 0 100-5.28 2.64 2.64 0 000 5.28zM131.38 676.91a2.651 2.651 0 00.531-5.248 2.654 2.654 0 00-2.724 1.125 2.655 2.655 0 00.325 3.343 2.652 2.652 0 001.868.78zM107.45 676.91a2.65 2.65 0 100-5.302 2.65 2.65 0 000 5.302zM83.51 676.91a2.64 2.64 0 100-5.28 2.64 2.64 0 000 5.28zM60.59 676.595a2.64 2.64 0 10-2.007-4.883 2.64 2.64 0 002.007 4.883zM35.65 671.66a2.653 2.653 0 00-2.456 1.631 2.65 2.65 0 102.456-1.631zM179.25 655.5a2.64 2.64 0 100-5.28 2.64 2.64 0 000 5.28zM155.31 655.5a2.64 2.64 0 100-5.28 2.64 2.64 0 000 5.28zM131.38 655.5a2.652 2.652 0 002.456-1.631 2.65 2.65 0 10-2.456 1.631zM107.45 655.5a2.655 2.655 0 002.449-1.638 2.654 2.654 0 00-.579-2.889 2.646 2.646 0 00-2.891-.568 2.649 2.649 0 00-1.629 2.455 2.631 2.631 0 00.777 1.87 2.627 2.627 0 001.873.77zM83.51 655.5a2.64 2.64 0 100-5.28 2.64 2.64 0 000 5.28zM60.593 655.193a2.64 2.64 0 10-2.007-4.883 2.64 2.64 0 002.007 4.883zM35.65 655.5a2.655 2.655 0 002.45-1.638 2.652 2.652 0 00-1.94-3.612 2.644 2.644 0 00-2.718 1.135c-.29.437-.444.95-.442 1.475a2.644 2.644 0 001.637 2.442c.321.132.666.199 1.013.198zM179.25 634.09a2.64 2.64 0 100-5.28 2.64 2.64 0 000 5.28zM155.31 634.09a2.64 2.64 0 100-5.28 2.64 2.64 0 000 5.28zM131.38 634.1a2.651 2.651 0 00.531-5.248 2.654 2.654 0 00-2.724 1.125 2.653 2.653 0 00.325 3.343 2.652 2.652 0 001.868.78zM107.45 634.1a2.65 2.65 0 10-.002-5.302 2.65 2.65 0 00.002 5.302zM83.51 634.09a2.64 2.64 0 100-5.28 2.64 2.64 0 000 5.28zM60.591 633.792a2.64 2.64 0 10-2.01-4.884 2.64 2.64 0 002.01 4.884zM35.65 634.1a2.644 2.644 0 002.448-1.636 2.65 2.65 0 10-2.448 1.636zM179.25 612.69a2.64 2.64 0 100-5.28 2.64 2.64 0 000 5.28zM155.31 612.69a2.64 2.64 0 100-5.28 2.64 2.64 0 000 5.28zM131.38 612.66a2.652 2.652 0 002.456-1.631 2.647 2.647 0 00-.572-2.893 2.649 2.649 0 00-2.893-.572 2.654 2.654 0 00-1.631 2.456 2.647 2.647 0 002.64 2.64zM107.45 612.66a2.655 2.655 0 002.449-1.638 2.654 2.654 0 00-.579-2.889 2.654 2.654 0 00-2.891-.568 2.649 2.649 0 00-1.629 2.455 2.628 2.628 0 00.777 1.87 2.627 2.627 0 001.873.77zM83.51 612.69a2.64 2.64 0 100-5.28 2.64 2.64 0 000 5.28zM60.593 612.389a2.64 2.64 0 10-2.006-4.882 2.64 2.64 0 002.006 4.882zM35.65 612.66a2.655 2.655 0 002.45-1.638 2.652 2.652 0 00-1.94-3.612 2.652 2.652 0 00-1.523 5.052c.321.132.666.199 1.013.198zM179.25 591.28a2.64 2.64 0 100-5.28 2.64 2.64 0 000 5.28zM155.31 591.28a2.64 2.64 0 100-5.28 2.64 2.64 0 000 5.28zM131.38 591.29a2.651 2.651 0 10.019-5.302 2.651 2.651 0 00-.019 5.302zM107.45 591.29a2.65 2.65 0 10-.002-5.302 2.65 2.65 0 00.002 5.302zM83.51 591.28a2.64 2.64 0 100-5.28 2.64 2.64 0 000 5.28zM60.592 590.978a2.64 2.64 0 10-2.01-4.884 2.64 2.64 0 002.01 4.884zM35.65 591.29a2.644 2.644 0 002.448-1.636 2.65 2.65 0 10-2.448 1.636z"/></g><defs><clipPath id="prefix__clip0_995_13219"><rect x="944" y="34" width="148.89" height="90.91" rx="16" fill="#fff"/></clipPath><clipPath id="prefix__clip1_995_13219"><rect x="33" y="586" width="148.89" height="90.91" rx="16" fill="#fff"/></clipPath></defs></svg>