<svg width="1120" height="236" fill="none" xmlns="http://www.w3.org/2000/svg"><g clip-path="url(#prefix__clip0_855_37011)" opacity=".32"><mask id="prefix__a" style="mask-type:luminance" maskUnits="userSpaceOnUse" x="0" y="0" width="1120" height="236"><path d="M1120 0H0v236h1120V0z" fill="#fff"/></mask><g mask="url(#prefix__a)" stroke="#365AA3" stroke-opacity=".25" stroke-width="2"><path d="M15.16 61.755c21.724 0 39.335-17.61 39.335-39.335 0-21.724-17.61-39.335-39.335-39.335-21.724 0-39.335 17.611-39.335 39.335 0 21.725 17.611 39.335 39.335 39.335zM125.731 160.835c21.724 0 39.335-17.611 39.335-39.335s-17.611-39.335-39.335-39.335c-21.725 0-39.335 17.61-39.335 39.335 0 21.724 17.61 39.335 39.335 39.335zM706.89 93.585c14.092 0 25.515-11.423 25.515-25.515 0-14.091-11.423-25.515-25.515-25.515S681.375 53.98 681.375 68.07c0 14.092 11.423 25.515 25.515 25.515zM844.94 95.29c18.28 0 33.1-14.819 33.1-33.1 0-18.28-14.82-33.1-33.1-33.1-18.281 0-33.1 14.82-33.1 33.1 0 18.281 14.819 33.1 33.1 33.1zM433.641 256.525c38.082 0 68.955-30.872 68.955-68.955s-30.873-68.955-68.955-68.955c-38.083 0-68.955 30.872-68.955 68.955s30.872 68.955 68.955 68.955zM774.17 104.555c14.296 0 25.885-11.589 25.885-25.885 0-14.296-11.589-25.885-25.885-25.885-14.296 0-25.885 11.59-25.885 25.885 0 14.296 11.589 25.885 25.885 25.885z"/><path d="M786.15 99.86c21.522 0 38.97-17.447 38.97-38.97 0-21.522-17.448-38.97-38.97-38.97-21.523 0-38.97 17.448-38.97 38.97 0 21.523 17.447 38.97 38.97 38.97zM156.38 84.415c39.463 0 71.455-31.991 71.455-71.455 0-39.463-31.992-71.455-71.455-71.455-39.464 0-71.455 31.992-71.455 71.455 0 39.464 31.991 71.455 71.455 71.455zM987.63 73.41c22.27 0 40.33-18.056 40.33-40.33 0-22.274-18.06-40.33-40.33-40.33-22.274 0-40.33 18.056-40.33 40.33 0 22.274 18.056 40.33 40.33 40.33zM317.65 220.42c37.566 0 68.02-30.453 68.02-68.02 0-37.566-30.454-68.02-68.02-68.02-37.567 0-68.02 30.454-68.02 68.02 0 37.567 30.453 68.02 68.02 68.02zM615.921 78.03c42.818 0 77.53-34.711 77.53-77.53 0-42.818-34.712-77.53-77.53-77.53-42.819 0-77.53 34.712-77.53 77.53 0 42.819 34.711 77.53 77.53 77.53z"/></g></g><defs><clipPath id="prefix__clip0_855_37011"><path d="M0 80C0 35.817 35.817 0 80 0h1016c13.25 0 24 10.745 24 24v132c0 44.183-35.82 80-80 80H24c-13.255 0-24-10.745-24-24V80z" fill="#fff"/></clipPath></defs></svg>