<svg width="800" height="612" fill="none" xmlns="http://www.w3.org/2000/svg"><g opacity=".24"><mask id="prefix__a" style="mask-type:luminance" maskUnits="userSpaceOnUse" x="0" y="0" width="800" height="612"><path d="M800 0H0v612h800V0z" fill="#fff"/></mask><g mask="url(#prefix__a)" stroke="#365AA3" stroke-opacity=".25" stroke-width="2"><path d="M67.47 38.23c56.334 0 102.001-45.667 102.001-102s-45.667-102-102-102-102 45.667-102 102 45.667 102 102 102zM719.8 723.17c67.688 0 122.56-54.872 122.56-122.56S787.488 478.05 719.8 478.05s-122.56 54.872-122.56 122.56 54.872 122.56 122.56 122.56z"/><path d="M467.501 788.28c97.721 0 176.94-79.219 176.94-176.94S565.222 434.4 467.501 434.4c-97.722 0-176.94 79.219-176.94 176.94s79.218 176.94 176.94 176.94zM13.65 292.355c52.282 0 94.665-42.383 94.665-94.665 0-52.282-42.383-94.665-94.665-94.665-52.282 0-94.665 42.383-94.665 94.665 0 52.282 42.383 94.665 94.665 94.665z"/><path d="M627.761 523.11c92.806 0 168.04-75.234 168.04-168.04s-75.234-168.04-168.04-168.04-168.04 75.234-168.04 168.04 75.234 168.04 168.04 168.04zM111.7 436.805c38.353 0 69.445-31.092 69.445-69.445 0-38.353-31.092-69.445-69.445-69.445-38.353 0-69.445 31.092-69.445 69.445 0 38.353 31.092 69.445 69.445 69.445z"/><path d="M786.211 570.83c85.438 0 154.7-69.261 154.7-154.7 0-85.438-69.262-154.7-154.7-154.7-85.439 0-154.7 69.262-154.7 154.7 0 85.439 69.261 154.7 154.7 154.7zM290.83 397.305c45.489 0 82.365-36.876 82.365-82.365s-36.876-82.365-82.365-82.365-82.365 36.876-82.365 82.365 36.876 82.365 82.365 82.365zM129.4 251.62c102.162 0 184.98-82.818 184.98-184.98 0-102.162-82.818-184.98-184.98-184.98-102.162 0-184.98 82.819-184.98 184.98 0 102.162 82.818 184.98 184.98 184.98zM735.261 164.16c82.677 0 149.7-67.023 149.7-149.7 0-82.677-67.023-149.7-149.7-149.7-82.677 0-149.7 67.023-149.7 149.7 0 82.677 67.023 149.7 149.7 149.7z"/></g></g></svg>